<svg xmlns="http://www.w3.org/2000/svg" xmlns:xlink="http://www.w3.org/1999/xlink" fill="none" version="1.1" width="37.701934814453125" height="37.6939811706543" viewBox="0 0 37.701934814453125 37.6939811706543"><g><path d="M11.3528,27.6927L18.8597,27.7003Q19.4132,27.6992,19.8051,27.3044L37.3058,9.80616Q37.7019,9.41078,37.7019,8.85152Q37.7019,8.29226,37.3058,7.89684L29.8038,0.397352Q29.4088,0,28.85,0Q28.2912,0,27.8959,0.397639L10.3964,17.8946Q10.0022,18.2898,9.99874,18.8446L9.99875,26.3292Q9.99875,26.892,10.3957,27.291Q10.7927,27.6899,11.3528,27.6927ZM6.35032,37.694L28.8513,37.694Q31.4791,37.6893,33.3379,35.8304Q35.1972,33.9711,35.2016,31.3428L35.2016,23.8434Q35.2016,23.2838,34.8059,22.8881Q34.4102,22.4924,33.8506,22.4924Q33.2911,22.4924,32.8954,22.8881Q32.4997,23.2838,32.4997,23.8434L32.4997,31.3437Q32.4997,32.856,31.4292,33.9243Q30.3588,34.9926,28.8477,34.9896L6.35097,34.9896Q4.84025,34.9911,3.77057,33.9236Q2.7009,32.856,2.69938,31.3442L2.69939,8.83883Q2.70842,7.33015,3.77365,6.26598Q4.83889,5.20181,6.34783,5.1943L13.8503,5.1943Q14.4095,5.19402,14.8049,4.79839Q15.2004,4.40274,15.2004,3.84335Q15.2004,3.28397,14.8049,2.88833Q14.4095,2.49269,13.8504,2.49241L6.35075,2.49241Q3.72111,2.49417,1.86144,4.35385Q0.0017662,6.21351,0.00000607967,8.84306L0.00000596046,31.3428Q0.00352263,33.9717,1.86291,35.8311Q3.72204,37.6903,6.35032,37.694ZM34.1006,9.19613L18.3034,24.9934L12.7132,24.9934L12.7132,19.3981L28.0482,4.06568L28.8611,3.2529L33.9943,8.38285L34.4542,8.84247L34.1006,9.19613ZM33.747,8.84258L33.6409,8.73648L33.3934,8.48914L33.6409,8.73648L33.747,8.84258Z" fill-rule="evenodd" fill="#000000" fill-opacity="1"/></g></svg>