<svg xmlns="http://www.w3.org/2000/svg" xmlns:xlink="http://www.w3.org/1999/xlink" fill="none" version="1.1" width="69" height="69" viewBox="0 0 69 69"><g><g><path d="M62,56.5399L62,15.5L57,15.5L57,56.5399Q57,59.6387,54.8082,61.8184Q52.6145,64,49.5,64L19.5,64Q16.3934,64,14.1967,61.8033Q12,59.6066,12,56.5L12,15.5L7,15.5L7,56.5Q7,61.6777,10.66117,65.33879999999999Q14.322330000000001,69,19.5,69L49.5,69Q54.6774,69,58.3339,65.3637Q62,61.7179,62,56.5399Z" fill-rule="evenodd" fill="#000000" fill-opacity="1"/></g><g><path d="M2.5,13L66.5,13Q66.6228,13,66.745,13.012039999999999Q66.8673,13.02408,66.9877,13.04804Q67.1082,13.072,67.2257,13.10765Q67.3432,13.1433,67.4567,13.1903Q67.5702,13.2373,67.6785,13.2952Q67.7868,13.35309,67.8889,13.421330000000001Q67.991,13.48956,68.086,13.56747Q68.1809,13.645389999999999,68.2678,13.73223Q68.3546,13.81908,68.4325,13.91402Q68.5105,14.00896,68.5787,14.11107Q68.6469,14.21319,68.7048,14.32151Q68.7627,14.42982,68.8097,14.543292Q68.8567,14.65676,68.8923,14.774288Q68.928,14.891817,68.952,15.012274Q68.9759,15.132731,68.988,15.254957Q69,15.377183,69,15.5Q69,15.622817,68.988,15.745043Q68.9759,15.867269,68.952,15.987726Q68.928,16.108183,68.8923,16.225712Q68.8567,16.34324,68.8097,16.456708Q68.7627,16.57018,68.7048,16.67849Q68.6469,16.78681,68.5787,16.88893Q68.5105,16.991039999999998,68.4325,17.08598Q68.3546,17.18092,68.2678,17.26777Q68.1809,17.35461,68.086,17.43253Q67.991,17.51044,67.8889,17.57867Q67.7868,17.64691,67.6785,17.7048Q67.5702,17.7627,67.4567,17.8097Q67.3432,17.8567,67.2257,17.89235Q67.1082,17.928,66.9877,17.95196Q66.8673,17.97592,66.745,17.98796Q66.6228,18,66.5,18L2.5,18Q2.377183,18,2.254957,17.98796Q2.132731,17.97592,2.012274,17.95196Q1.891817,17.928,1.7742879999999999,17.89235Q1.65676,17.8567,1.543292,17.8097Q1.42982,17.7627,1.32151,17.7048Q1.21319,17.64691,1.11107,17.57867Q1.00896,17.51044,0.91402,17.43253Q0.81908,17.35461,0.7322299999999999,17.26777Q0.6453899999999999,17.18092,0.5674699999999999,17.08598Q0.48956,16.991039999999998,0.4213300000000002,16.88893Q0.3530899999999999,16.78681,0.2951999999999999,16.67849Q0.23729999999999984,16.57018,0.19030000000000014,16.456708Q0.14329999999999998,16.34324,0.10765000000000002,16.225712Q0.07200000000000006,16.108183,0.04803999999999986,15.987726Q0.0240800000000001,15.867269,0.012039999999999829,15.745043Q0,15.622817,0,15.5Q0,15.377183,0.012039999999999829,15.254957Q0.0240800000000001,15.132731,0.04803999999999986,15.012274Q0.07200000000000006,14.891817,0.10765000000000002,14.774288Q0.14329999999999998,14.65676,0.19030000000000014,14.543292Q0.23729999999999984,14.42982,0.2951999999999999,14.32151Q0.3530899999999999,14.21319,0.4213300000000002,14.11107Q0.48956,14.00896,0.5674699999999999,13.91402Q0.6453899999999999,13.81908,0.7322299999999999,13.73223Q0.81908,13.645389999999999,0.91402,13.56747Q1.00896,13.48956,1.11107,13.421330000000001Q1.21319,13.35309,1.32151,13.2952Q1.42982,13.2373,1.543292,13.1903Q1.65676,13.1433,1.7742879999999999,13.10765Q1.891817,13.072,2.012274,13.04804Q2.132731,13.02408,2.254957,13.012039999999999Q2.377183,13,2.5,13Z" fill-rule="evenodd" fill="#000000" fill-opacity="1"/></g><g><path d="M12.5,0L56.5,0Q56.6228,0,56.745,0.012039999999999829Q56.8673,0.0240800000000001,56.9877,0.04803999999999986Q57.1082,0.07200000000000006,57.2257,0.10765000000000002Q57.3432,0.14329999999999998,57.4567,0.19030000000000014Q57.5702,0.23729999999999984,57.6785,0.2951999999999999Q57.7868,0.3530899999999999,57.8889,0.4213300000000002Q57.991,0.48956,58.086,0.5674699999999999Q58.1809,0.6453899999999999,58.2678,0.7322299999999999Q58.3546,0.81908,58.4325,0.91402Q58.5104,1.00896,58.5787,1.11107Q58.6469,1.21319,58.7048,1.32151Q58.7627,1.42982,58.8097,1.543292Q58.8567,1.65676,58.8923,1.7742879999999999Q58.928,1.891817,58.952,2.012274Q58.9759,2.132731,58.988,2.254957Q59,2.377183,59,2.5Q59,2.622817,58.988,2.745043Q58.9759,2.867269,58.952,2.987726Q58.928,3.108183,58.8923,3.225712Q58.8567,3.3432399999999998,58.8097,3.456708Q58.7627,3.5701799999999997,58.7048,3.67849Q58.6469,3.78681,58.5787,3.88893Q58.5104,3.99104,58.4325,4.08598Q58.3546,4.18092,58.2678,4.2677700000000005Q58.1809,4.35461,58.086,4.43253Q57.991,4.51044,57.8889,4.57867Q57.7868,4.64691,57.6785,4.7048000000000005Q57.5702,4.762700000000001,57.4567,4.809699999999999Q57.3432,4.8567,57.2257,4.89235Q57.1082,4.928,56.9877,4.95196Q56.8673,4.97592,56.745,4.98796Q56.6228,5,56.5,5L12.5,5Q12.377183,5,12.254957,4.98796Q12.132731,4.97592,12.012274,4.95196Q11.891817,4.928,11.774288,4.89235Q11.65676,4.8567,11.543292,4.809699999999999Q11.42982,4.762700000000001,11.32151,4.7048000000000005Q11.21319,4.64691,11.11107,4.57867Q11.00896,4.51044,10.91402,4.43253Q10.81908,4.35461,10.73223,4.2677700000000005Q10.645389999999999,4.18092,10.56747,4.08598Q10.48956,3.99104,10.421330000000001,3.88893Q10.35309,3.78681,10.2952,3.67849Q10.2373,3.5701799999999997,10.1903,3.456708Q10.1433,3.3432399999999998,10.10765,3.225712Q10.072,3.108183,10.04804,2.987726Q10.02408,2.867269,10.012039999999999,2.745043Q10,2.622817,10,2.5Q10,2.377183,10.012039999999999,2.254957Q10.02408,2.132731,10.04804,2.012274Q10.072,1.891817,10.10765,1.7742879999999999Q10.1433,1.65676,10.1903,1.543292Q10.2373,1.42982,10.2952,1.32151Q10.35309,1.21319,10.421330000000001,1.11107Q10.48956,1.00896,10.56747,0.91402Q10.645389999999999,0.81908,10.73223,0.7322299999999999Q10.81908,0.6453899999999999,10.91402,0.5674699999999999Q11.00896,0.48956,11.11107,0.4213300000000002Q11.21319,0.3530899999999999,11.32151,0.2951999999999999Q11.42982,0.23729999999999984,11.543292,0.19030000000000014Q11.65676,0.14329999999999998,11.774288,0.10765000000000002Q11.891817,0.07200000000000006,12.012274,0.04803999999999986Q12.132731,0.0240800000000001,12.254957,0.012039999999999829Q12.377183,0,12.5,0Z" fill-rule="evenodd" fill="#000000" fill-opacity="1"/></g><g transform="matrix(0,-1,1,0,-23,76)"><path d="M26.5,47L60.5,47Q60.6228,47,60.745,47.01204Q60.8673,47.02408,60.9877,47.04804Q61.1082,47.072,61.2257,47.10765Q61.3432,47.143299999999996,61.4567,47.1903Q61.5702,47.2373,61.6785,47.2952Q61.7868,47.35309,61.8889,47.42133Q61.991,47.48956,62.086,47.56747Q62.1809,47.64539,62.2678,47.73223Q62.3546,47.81908,62.4325,47.91402Q62.5104,48.00896,62.5787,48.11107Q62.6469,48.21319,62.7048,48.32151Q62.7627,48.42982,62.8097,48.543292Q62.8567,48.65676,62.8924,48.774288Q62.928,48.891817,62.952,49.012274Q62.9759,49.132731,62.988,49.254957Q63,49.377183,63,49.5Q63,49.622817,62.988,49.745043Q62.9759,49.867269,62.952,49.987726Q62.928,50.108183,62.8923,50.225712Q62.8567,50.34324,62.8097,50.456708Q62.7627,50.57018,62.7048,50.67849Q62.6469,50.78681,62.5787,50.88893Q62.5104,50.99104,62.4325,51.08598Q62.3546,51.18092,62.2678,51.26777Q62.1809,51.35461,62.086,51.43253Q61.991,51.51044,61.8889,51.57867Q61.7868,51.64691,61.6785,51.7048Q61.5702,51.7627,61.4567,51.8097Q61.3432,51.856700000000004,61.2257,51.89235Q61.1082,51.928,60.9877,51.95196Q60.8673,51.97592,60.745,51.98796Q60.6228,52,60.5,52L26.5,52Q26.377183,52,26.254957,51.98796Q26.132731,51.97592,26.012274,51.95196Q25.891817,51.928,25.774288,51.89235Q25.65676,51.856700000000004,25.543292,51.8097Q25.42982,51.7627,25.32151,51.7048Q25.21319,51.64691,25.11107,51.57867Q25.008960000000002,51.51044,24.91402,51.43253Q24.81908,51.35461,24.73223,51.26777Q24.64539,51.18092,24.56747,51.08598Q24.48956,50.99104,24.42133,50.88893Q24.35309,50.78681,24.2952,50.67849Q24.2373,50.57018,24.1903,50.456708Q24.1433,50.34324,24.10765,50.225712Q24.072,50.108183,24.04804,49.987726Q24.02408,49.867269,24.01204,49.745043Q24,49.622817,24,49.5Q24,49.377183,24.01204,49.254957Q24.02408,49.132731,24.04804,49.012274Q24.072,48.891817,24.10765,48.774288Q24.1433,48.65676,24.1903,48.543292Q24.2373,48.42982,24.2952,48.32151Q24.35309,48.21319,24.42133,48.11107Q24.48956,48.00896,24.56747,47.91402Q24.64539,47.81908,24.73223,47.73223Q24.81908,47.64539,24.91402,47.56747Q25.008960000000002,47.48956,25.11107,47.42133Q25.21319,47.35309,25.32151,47.2952Q25.42982,47.2373,25.543292,47.1903Q25.65676,47.143299999999996,25.774288,47.10765Q25.891817,47.072,26.012274,47.04804Q26.132731,47.02408,26.254957,47.01204Q26.377183,47,26.5,47Z" fill-rule="evenodd" fill="#000000" fill-opacity="1"/></g><g transform="matrix(0,-1,1,0,-6,93)"><path d="M43.5,47L76.5,47Q76.6228,47,76.745,47.01204Q76.8673,47.02408,76.98769999999999,47.04804Q77.1082,47.072,77.2257,47.10765Q77.3432,47.143299999999996,77.4567,47.1903Q77.5702,47.2373,77.6785,47.2952Q77.7868,47.35309,77.8889,47.42133Q77.991,47.48956,78.086,47.56747Q78.18090000000001,47.64539,78.2678,47.73223Q78.3546,47.81908,78.4325,47.91402Q78.5104,48.00896,78.5787,48.11107Q78.6469,48.21319,78.7048,48.32151Q78.7627,48.42982,78.80969999999999,48.543292Q78.85669999999999,48.65676,78.8923,48.774288Q78.928,48.891817,78.952,49.012274Q78.9759,49.132731,78.988,49.254957Q79,49.377183,79,49.5Q79,49.622817,78.988,49.745043Q78.9759,49.867269,78.952,49.987726Q78.928,50.108183,78.8923,50.225712Q78.85669999999999,50.34324,78.80969999999999,50.456708Q78.7627,50.57018,78.7048,50.67849Q78.6469,50.78681,78.5787,50.88893Q78.5104,50.99104,78.4325,51.08598Q78.3546,51.18092,78.2678,51.26777Q78.18090000000001,51.35461,78.086,51.43253Q77.991,51.51044,77.8889,51.57867Q77.7868,51.64691,77.6785,51.7048Q77.5702,51.7627,77.4567,51.8097Q77.3432,51.856700000000004,77.2257,51.89235Q77.1082,51.928,76.98769999999999,51.95196Q76.8673,51.97592,76.745,51.98796Q76.6228,52,76.5,52L43.5,52Q43.377183,52,43.254957,51.98796Q43.132731,51.97592,43.012274,51.95196Q42.891817,51.928,42.774288,51.89235Q42.65676,51.856700000000004,42.543292,51.8097Q42.42982,51.7627,42.32151,51.7048Q42.21319,51.64691,42.11107,51.57867Q42.00896,51.51044,41.91402,51.43253Q41.81908,51.35461,41.73223,51.26777Q41.64539,51.18092,41.56747,51.08598Q41.48956,50.99104,41.42133,50.88893Q41.35309,50.78681,41.2952,50.67849Q41.2373,50.57018,41.1903,50.456708Q41.143299999999996,50.34324,41.10765,50.225712Q41.072,50.108183,41.04804,49.987726Q41.02408,49.867269,41.01204,49.745043Q41,49.622817,41,49.5Q41,49.377183,41.01204,49.254957Q41.02408,49.132731,41.04804,49.012274Q41.072,48.891817,41.10765,48.774288Q41.143299999999996,48.65676,41.1903,48.543292Q41.2373,48.42982,41.2952,48.32151Q41.35309,48.21319,41.42133,48.11107Q41.48956,48.00896,41.56747,47.91402Q41.64539,47.81908,41.73223,47.73223Q41.81908,47.64539,41.91402,47.56747Q42.00896,47.48956,42.11107,47.42133Q42.21319,47.35309,42.32151,47.2952Q42.42982,47.2373,42.543292,47.1903Q42.65676,47.143299999999996,42.774288,47.10765Q42.891817,47.072,43.012274,47.04804Q43.132731,47.02408,43.254957,47.01204Q43.377183,47,43.5,47Z" fill-rule="evenodd" fill="#000000" fill-opacity="1"/></g></g></svg>