<svg xmlns="http://www.w3.org/2000/svg" xmlns:xlink="http://www.w3.org/1999/xlink" fill="none" version="1.1" width="38.99171447753906" height="36.116668701171875" viewBox="0 0 38.99171447753906 36.116668701171875"><g><path d="M38.9917,18.0583Q38.9917,17.2267,38.5905,16.4982L30.3991,1.64465Q29.9827,0.88499,29.2387,0.443344Q28.4947,0.00169504,27.6289,-0.00000229478L11.3615,0Q10.4971,0.00169474,9.75304,0.443344Q9.00902,0.884989,8.59347,1.64317L0.401057,16.4984Q0.00000613928,17.2267,0.00000610948,18.0583Q0.00000613928,18.89,0.401252,19.6186L8.59265,34.472Q9.00902,35.2317,9.75304,35.6733Q10.4971,36.115,11.3628,36.1167L27.6302,36.1167Q28.4946,36.115,29.2387,35.6733Q29.9827,35.2317,30.3983,34.4735L38.5907,19.6183Q38.9917,18.89,38.9917,18.0583ZM36.3382,18.364L28.1608,33.2182Q27.9843,33.5409,27.6167,33.5417L11.3764,33.5417Q11.0074,33.5409,10.8304,33.2172L2.6536,18.3642Q2.48563,18.0586,2.6534,17.7533L10.8315,2.89806Q11.0071,2.576,11.3748,2.575L27.6151,2.575Q27.9847,2.576,28.1615,2.90036L36.3381,17.753Q36.5061,18.0586,36.3382,18.364ZM24.6872,23.1885Q26.8889,20.9869,26.8889,17.8734Q26.8889,14.7598,24.6872,12.5582Q22.4856,10.3567,19.3722,10.3567Q16.2586,10.3567,14.0571,12.5582Q11.8556,14.7597,11.8556,17.8734Q11.8556,20.987,14.0571,23.1885Q16.2586,25.39,19.3722,25.39Q22.4856,25.39,24.6872,23.1885ZM15.8779,21.3677Q14.4306,19.9203,14.4306,17.8734Q14.4306,15.8264,15.8779,14.3791Q17.3253,12.9317,19.3722,12.9317Q21.4192,12.9317,22.8666,14.3791Q24.3139,15.8264,24.3139,17.8734Q24.3139,19.9203,22.8666,21.3677Q21.4192,22.815,19.3722,22.815Q17.3253,22.815,15.8779,21.3677Z" fill-rule="evenodd" fill="#000000" fill-opacity="1"/></g></svg>