<svg xmlns="http://www.w3.org/2000/svg" xmlns:xlink="http://www.w3.org/1999/xlink" fill="none" version="1.1" width="42" height="42" viewBox="0 0 42 42"><g><g><path d="M0,21C0,23.98,0.620725,26.8151,1.73994,29.3829C2.23618,30.5215,2.03947,32.3474,1.84055,34.1939C1.59083,36.5119,1.33761,38.8624,2.44747,39.9262C3.49722,40.9324,5.89749,40.6648,8.24324,40.4033C10.1123,40.1949,11.9467,39.9904,13.0358,40.4372C15.4918,41.4446,18.181,42,21,42C32.598,42,42,32.598,42,21C42,9.40202,32.598,0,21,0C9.40202,0,0,9.40202,0,21ZM3.15462,21Q3.15462,24.7333,4.6318,28.1225Q5.23507,29.5066,5.20522,31.5686Q5.19109,32.5447,4.97702,34.5317Q4.752,36.6206,4.78577,37.3925Q4.78778,37.4383,4.79029,37.4811Q4.86132,37.4845,4.93998,37.4865Q5.74881,37.5072,7.89375,37.2681Q9.88791,37.0458,10.8508,37.021Q12.8919,36.9685,14.2329,37.5185Q17.4678,38.8454,21,38.8454Q24.6327,38.8454,27.9453,37.4443Q31.1472,36.09,33.6186,33.6186Q36.09,31.1472,37.4443,27.9453Q38.8454,24.6327,38.8454,21Q38.8454,17.3673,37.4443,14.0547Q36.09,10.8528,33.6186,8.38141Q31.1472,5.91,27.9453,4.5557Q24.6327,3.15462,21,3.15462Q17.3673,3.15462,14.0547,4.5557Q10.8528,5.91,8.38141,8.38141Q5.91,10.8528,4.5557,14.0547Q3.15462,17.3673,3.15462,21Z" fill-rule="evenodd" fill="#B3B3B3" fill-opacity="1"/></g><g><ellipse cx="12.553988456726074" cy="21.567282676696777" rx="2.253298759460449" ry="2.253298759460449" fill="#B3B3B3" fill-opacity="1"/></g><g><ellipse cx="21.567299842834473" cy="21.567282676696777" rx="2.253298759460449" ry="2.253298759460449" fill="#B3B3B3" fill-opacity="1"/></g><g><ellipse cx="29.292847633361816" cy="21.567282676696777" rx="2.253298759460449" ry="2.253298759460449" fill="#B3B3B3" fill-opacity="1"/></g></g></svg>