<svg xmlns="http://www.w3.org/2000/svg" xmlns:xlink="http://www.w3.org/1999/xlink" fill="none" version="1.1" width="42" height="43.10107421875" viewBox="0 0 42 43.10107421875"><g><g><path d="M0,36.93517402801514C0,40.34047402801514,2.76056,43.101074028015134,6.16589,43.101074028015134L12.7341,43.101074028015134C16.1394,43.101074028015134,18.9,40.34047402801514,18.9,36.93517402801514L18.9,26.02137402801514C18.9,24.548074028015137,18.3724,23.123374028015135,17.4128,22.005444028015138L14.0524,18.090404028015136C11.5661,15.193734028015136,7.07181,15.229404028015136,4.63179,18.165174028015137L1.42399,22.02473402801514C0.503776,23.131874028015137,0,24.526174028015134,0,25.965874028015136L0,36.93517402801514ZM3.08295,36.93517402801514Q3.08295,38.21217402801514,3.98592,39.11517402801513Q4.88889,40.018074028015135,6.16589,40.018074028015135L12.7341,40.018074028015135Q14.0111,40.018074028015135,14.9141,39.11517402801513Q15.817,38.21217402801514,15.817,36.93517402801514L15.817,26.02137402801514Q15.817,24.87967402801514,15.0735,24.013374028015136L11.7131,20.098364028015137Q10.7807,19.012114028015137,9.34922,19.023474028015137Q7.91775,19.034834028015137,7.00274,20.135754028015135L3.79494,23.99527402801514Q3.08295,24.851974028015135,3.08295,25.965874028015136L3.08295,36.93517402801514Z" fill-rule="evenodd" fill="#FFC82F" fill-opacity="1"/></g><g><path d="M23.099998474121094,36.93517402801514C23.099998474121094,40.34047402801514,25.860558474121092,43.101074028015134,29.265888474121095,43.101074028015134L35.83409847412109,43.101074028015134C39.23939847412109,43.101074028015134,41.99999847412109,40.34047402801514,41.99999847412109,36.93517402801514L41.99999847412109,26.02137402801514C41.99999847412109,24.548074028015137,41.47239847412109,23.123374028015135,40.5127984741211,22.005444028015138L37.15239847412109,18.090404028015136C34.66609847412109,15.193734028015136,30.171808474121093,15.229404028015136,27.731788474121092,18.165174028015137L24.523988474121094,22.02473402801514C23.603774474121092,23.131874028015137,23.099998474121094,24.526174028015134,23.099998474121094,25.965874028015136L23.099998474121094,36.93517402801514ZM26.182948474121094,36.93517402801514Q26.182948474121094,38.21217402801514,27.085918474121094,39.11517402801513Q27.988888474121094,40.018074028015135,29.265888474121095,40.018074028015135L35.83409847412109,40.018074028015135Q37.11109847412109,40.018074028015135,38.01409847412109,39.11517402801513Q38.916998474121094,38.21217402801514,38.916998474121094,36.93517402801514L38.916998474121094,26.02137402801514Q38.916998474121094,24.87967402801514,38.17349847412109,24.013374028015136L34.81309847412109,20.098364028015137Q33.88069847412109,19.012114028015137,32.449218474121096,19.023474028015137Q31.017748474121092,19.034834028015137,30.102738474121093,20.135754028015135L26.894938474121094,23.99527402801514Q26.182948474121094,24.851974028015135,26.182948474121094,25.965874028015136L26.182948474121094,36.93517402801514Z" fill-rule="evenodd" fill="#FFC82F" fill-opacity="1"/></g><g transform="matrix(0.6637880802154541,0.7479206919670105,-0.6637880206108093,0.7479207515716553,10.520555116997912,-14.585238421298413)"><rect x="19.515244841575623" y="3.3960031270980835" width="11.401269674301147" height="11.401571989059448" rx="3.1665605306625366" fill-opacity="0" stroke-opacity="1" stroke="#FFC82F" fill="none" stroke-width="3.410142183303833"/></g></g></svg>