<svg xmlns="http://www.w3.org/2000/svg" xmlns:xlink="http://www.w3.org/1999/xlink" fill="none" version="1.1" width="42.59423828125" height="45" viewBox="0 0 42.59423828125 45"><g><g><path d="M0,35.8103C0,40.8856,4.11436,45,9.18969,45L33.4045,45C38.4798,45,42.5942,40.8856,42.5942,35.8103L42.5942,20.1935C42.5942,17.2265,41.1617,14.4421,38.7479,12.717L26.3846,3.88101C23.1463,1.56669,18.7863,1.60007,15.5839,3.9637L3.73245,12.711C1.38521,14.4435,0,17.1875,0,20.1049L0,35.8103ZM3.21639,35.8103Q3.21639,38.2845,4.96593,40.0341Q6.71547,41.7836,9.18969,41.7836L33.4045,41.7836Q35.8787,41.7836,37.6282,40.0341Q39.3778,38.2845,39.3778,35.8103L39.3778,20.1935Q39.3778,18.7471,38.7161,17.4609Q38.0544,16.1748,36.8777,15.3337L24.5144,6.4978Q22.9357,5.36957,20.9954,5.38442Q19.0551,5.39927,17.494,6.55154L5.64248,15.2989Q4.4982,16.1434,3.8573,17.413Q3.21639,18.6827,3.21639,20.1049L3.21639,35.8103Z" fill-rule="evenodd" fill="#FFC82F" fill-opacity="1"/></g><g><path d="M13.720335329711913,32.63598767578125Q17.794022329711915,34.02222867578125,21.853392329711916,34.02222867578125Q25.91272232971191,34.02222967578125,29.986322329711914,32.63598767578125Q30.271722329711913,32.52311767578125,30.578522329711912,32.52311767578125Q30.657622329711913,32.52311767578125,30.736422329711914,32.53086767578125Q30.815122329711915,32.53862767578125,30.892622329711916,32.55405767578125Q30.970222329711913,32.56948767578125,31.045922329711914,32.59244767578125Q31.121622329711915,32.61540767578125,31.194722329711915,32.64566767578125Q31.267722329711916,32.67593767578125,31.337522329711913,32.71322767578125Q31.407322329711914,32.75050767578125,31.473022329711913,32.79444767578125Q31.538822329711913,32.83839767578125,31.599922329711916,32.88856767578125Q31.661122329711915,32.93874767578125,31.717022329711913,32.99467767578125Q31.772922329711914,33.05060767578125,31.823122329711914,33.11174767578125Q31.873322329711915,33.17288567578125,31.917222329711915,33.23864967578125Q31.961222329711916,33.30441367578125,31.998422329711914,33.37416867578125Q32.035722329711916,33.44392367578125,32.06602232971191,33.51699767578125Q32.09632232971191,33.59007067578125,32.11922232971192,33.66575967578125Q32.14222232971191,33.74144767578125,32.15762232971191,33.81902267578125Q32.17302232971191,33.89659667578125,32.180822329711916,33.97530967578125Q32.188522329711915,34.05402347578125,32.188522329711915,34.13311767578125Q32.188522329711915,34.26308267578125,32.167722329711914,34.39136467578125Q32.14692232971191,34.51964767578125,32.10572232971191,34.64292467578125Q32.06462232971191,34.76620167578125,32.004222329711915,34.88128167578125Q31.943822329711914,34.99636167578125,31.865722329711915,35.10026467578125Q31.787622329711915,35.20416767578125,31.693922329711913,35.29419767578125Q31.600222329711915,35.38423767578125,31.493222329711916,35.45806767578125Q31.386322329711913,35.53190767578125,31.268822329711913,35.58762767578125Q31.151422329711913,35.64334767578125,31.026622329711913,35.67951767578125Q26.447222329711913,37.23861767578125,21.853392329711916,37.23861767578125Q17.259612329711914,37.23861767578125,12.680084329711914,35.67951767578125Q12.555252329711914,35.64335767578125,12.437838329711914,35.58762767578125Q12.320424329711914,35.53190767578125,12.213468329711914,35.45807767578125Q12.106512329711915,35.38423767578125,12.012782329711914,35.29420767578125Q11.919062329711913,35.20416767578125,11.840982329711913,35.10026767578125Q11.762912329711915,34.99636467578125,11.702522329711915,34.88128467578125Q11.642122329711913,34.76620467578125,11.600972329711913,34.64292667578125Q11.559812329711914,34.51964867578125,11.538972329711914,34.39136567578125Q11.518122329711915,34.26308367578125,11.518122329711915,34.13311767578125Q11.518122329711915,34.05402347578125,11.525872329711914,33.97530967578125Q11.533632329711914,33.89659667578125,11.549062329711914,33.81902267578125Q11.564492329711914,33.74144767578125,11.587452329711914,33.66575967578125Q11.610412329711915,33.59007067578125,11.640672329711915,33.51699767578125Q11.670942329711915,33.44392367578125,11.708232329711914,33.37416867578125Q11.745512329711914,33.30441367578125,11.789452329711914,33.23864967578125Q11.833402329711914,33.17288567578125,11.883572329711914,33.11174767578125Q11.933752329711915,33.05060767578125,11.989682329711915,32.99467767578125Q12.045612329711915,32.93874767578125,12.106752329711915,32.88856767578125Q12.167890329711915,32.83839767578125,12.233654329711914,32.79444767578125Q12.299418329711914,32.75050767578125,12.369173329711915,32.71322767578125Q12.438928329711914,32.67593767578125,12.512002329711914,32.64566767578125Q12.585075329711914,32.61540767578125,12.660764329711913,32.59244767578125Q12.736452329711915,32.56948767578125,12.814027329711914,32.55405767578125Q12.891601329711914,32.53862767578125,12.970314329711915,32.53086767578125Q13.049028129711914,32.52311767578125,13.128122329711914,32.52311767578125Q13.434985329711914,32.52311767578125,13.720335329711913,32.63598767578125Z" fill-rule="evenodd" fill="#FFC82F" fill-opacity="1"/></g></g></svg>