<svg xmlns="http://www.w3.org/2000/svg" xmlns:xlink="http://www.w3.org/1999/xlink" fill="none" version="1.1" width="42" height="42" viewBox="0 0 42 42"><g><g><ellipse cx="21" cy="21" rx="19.424251079559326" ry="19.424251079559326" fill-opacity="0" stroke-opacity="1" stroke="#FFC41F" fill="none" stroke-width="3.1514978408813477"/></g><g transform="matrix(1,-1.3409002974640316e-7,1.3409002974640316e-7,1,-0.000003327854138035491,0.000001118541945288598)"><path d="M16.377073442077638,26.249808013916017Q16.479343442077635,26.202928013916015,16.573913442077636,26.141988013916016Q16.668493442077637,26.081048013916014,16.75344344207764,26.007278013916014Q16.83839344207764,25.933518013916014,16.911993442077637,25.848418013916017Q16.985593442077636,25.763329013916014,17.04635344207764,25.668639013916014Q17.107113442077637,25.573949013916014,17.153793442077635,25.471584013916015Q17.200483442077637,25.369219013916016,17.232143442077636,25.261257013916016Q17.263803442077638,25.153296013916016,17.279793442077636,25.041931013916017Q17.295783442077635,24.930566013916014,17.295783442077635,24.818058013916016Q17.295783442077635,24.740683213916014,17.288203442077638,24.663681013916015Q17.280613442077637,24.586679013916015,17.265523442077637,24.510791013916016Q17.250423442077636,24.434903013916017,17.227963442077638,24.360860013916017Q17.205503442077635,24.286817013916014,17.175893442077637,24.215332013916015Q17.14628344207764,24.143847013916016,17.109803442077634,24.075608013916014Q17.073333442077637,24.007370013916017,17.030343442077637,23.943035013916017Q16.987363442077637,23.878700013916017,16.938273442077637,23.818889013916017Q16.889183442077638,23.759078013916017,16.834473442077638,23.704368013916017Q16.779763442077638,23.649648013916014,16.71995344207764,23.600568013916014Q16.660143442077636,23.551478013916014,16.59580344207764,23.508498013916014Q16.531473442077637,23.465508013916015,16.463233442077637,23.429028013916017Q16.394993442077634,23.392558013916016,16.323503442077637,23.362948013916014Q16.252023442077636,23.333338013916016,16.177983442077636,23.310878013916017Q16.103933442077636,23.288418013916015,16.028053442077635,23.273318013916015Q15.952163442077637,23.258228013916014,15.875163442077636,23.250638013916017Q15.798153442077638,23.243058013916016,15.720783442077636,23.243058013916016Q15.377003442077637,23.243058013916016,15.064493442077637,23.386308013916015L15.064183442077637,23.385628013916016Q11.530843442077636,25.005234013916017,9.300110442077637,28.201078013916018Q7.019333442077636,31.468608013916015,6.769083442077637,35.446858013916014L6.769833442077637,35.44695801391602Q6.7667234420776365,35.49625801391602,6.7667234420776365,35.545758013916014Q6.7667234420776365,35.62315801391601,6.7743034420776365,35.70015801391602Q6.781893442077637,35.777158013916015,6.796983442077637,35.85305801391601Q6.812083442077636,35.92895801391602,6.834543442077637,36.002958013916015Q6.8570034420776365,36.077058013916016,6.886613442077637,36.148558013916016Q6.916223442077637,36.21995801391601,6.952693442077637,36.288258013916014Q6.989173442077637,36.35645801391601,7.032163442077636,36.42085801391602Q7.0751434420776365,36.48515801391601,7.124233442077637,36.544958013916016Q7.173313442077637,36.60475801391601,7.228033442077637,36.659458013916016Q7.282743442077637,36.71415801391602,7.3425544420776365,36.763258013916015Q7.402365442077636,36.81235801391602,7.466700442077637,36.85535801391602Q7.531035442077637,36.89835801391602,7.599273442077637,36.93485801391601Q7.667512442077637,36.971258013916014,7.738997442077637,37.000858013916016Q7.810482442077637,37.03045801391602,7.884525442077637,37.05295801391601Q7.958568442077636,37.07545801391602,8.034456442077637,37.09055801391602Q8.110344442077636,37.10565801391601,8.187346442077637,37.11315801391601Q8.264348642077637,37.12075801391602,8.341723442077637,37.12075801391602Q8.415999042077637,37.12075801391602,8.489945442077637,37.11375801391601Q8.563890442077637,37.106758013916014,8.636850442077638,37.092858013916015Q8.709810442077636,37.078958013916015,8.781137442077636,37.05825801391602Q8.852463442077637,37.03755801391601,8.921523442077637,37.01015801391601Q8.990582442077637,36.982858013916015,9.056762442077638,36.94915801391602Q9.122942442077637,36.91535801391602,9.185655442077637,36.87555801391601Q9.248368442077636,36.83575801391601,9.307057442077637,36.79025801391602Q9.365743442077637,36.74475801391601,9.419893442077637,36.693858013916014Q9.474033442077637,36.64305801391602,9.523153442077637,36.58735801391602Q9.572273442077638,36.531658013916015,9.615933442077637,36.47155801391602Q9.659593442077636,36.41145801391602,9.697393442077637,36.347558013916014Q9.735203442077637,36.283558013916014,9.766833442077637,36.216358013916015Q9.798453442077637,36.149158013916015,9.823613442077637,36.07925801391602Q9.848773442077636,36.009358013916014,9.867243442077637,35.937458013916014Q9.885713442077638,35.865558013916015,9.897333442077636,35.792158013916016Q9.908953442077637,35.718758013916016,9.913613442077637,35.644658013916015L9.914363442077637,35.64475801391602Q10.109153442077638,32.54807801391601,11.884333442077637,30.004888013916016Q13.623983442077638,27.512588013916016,16.377383442077637,26.250488013916016L16.377073442077638,26.249808013916017ZM26.935723442077638,23.386308013916015L26.936023442077637,23.385628013916016Q30.469423442077638,25.005236013916015,32.70012344207764,28.201078013916018Q34.98092344207764,31.468608013916015,35.23112344207763,35.446858013916014L35.23042344207764,35.44695801391602Q35.23352344207764,35.49625801391602,35.23352344207764,35.545758013916014Q35.23352344207764,35.62315801391601,35.22592344207764,35.70015801391602Q35.21832344207763,35.777158013916015,35.203223442077636,35.85305801391601Q35.18812344207764,35.92895801391602,35.165723442077635,36.002958013916015Q35.14322344207764,36.077058013916016,35.11362344207764,36.148558013916016Q35.08402344207764,36.21995801391601,35.04752344207763,36.288258013916014Q35.01102344207764,36.35645801391601,34.96812344207764,36.42085801391602Q34.925123442077634,36.48515801391601,34.87602344207764,36.544958013916016Q34.826923442077636,36.60475801391601,34.77222344207763,36.659458013916016Q34.717523442077635,36.71415801391602,34.65772344207764,36.763258013916015Q34.59782344207764,36.81235801391602,34.53352344207764,36.85535801391602Q34.469223442077634,36.89835801391602,34.40092344207764,36.93485801391601Q34.332723442077636,36.971258013916014,34.261223442077636,37.000858013916016Q34.189723442077636,37.03045801391602,34.11572344207764,37.05295801391601Q34.041623442077636,37.07545801391602,33.965823442077635,37.09055801391602Q33.88992344207764,37.10565801391601,33.81292344207763,37.11315801391601Q33.735923442077635,37.12075801391602,33.65852344207764,37.12075801391602Q33.584223442077636,37.12075801391602,33.510323442077635,37.11375801391601Q33.43632344207764,37.106758013916014,33.36342344207763,37.092858013916015Q33.29042344207764,37.078958013916015,33.21912344207764,37.05825801391602Q33.14782344207764,37.03755801391601,33.07872344207763,37.01015801391601Q33.00962344207764,36.982858013916015,32.943523442077634,36.94915801391602Q32.87732344207764,36.91535801391602,32.81462344207763,36.87555801391601Q32.75182344207764,36.83575801391601,32.69322344207764,36.79025801391602Q32.634523442077636,36.74475801391601,32.58032344207764,36.693858013916014Q32.52622344207764,36.64305801391602,32.47712344207764,36.58735801391602Q32.42792344207764,36.531658013916015,32.38432344207764,36.47155801391602Q32.340623442077636,36.41145801391602,32.30282344207764,36.347558013916014Q32.265023442077634,36.283558013916014,32.23342344207764,36.216358013916015Q32.20182344207764,36.149158013916015,32.17662344207764,36.07925801391602Q32.151423442077636,36.009358013916014,32.133023442077636,35.937458013916014Q32.11452344207764,35.865558013916015,32.10292344207764,35.792158013916016Q32.09132344207764,35.718758013916016,32.08662344207764,35.644658013916015L32.085923442077636,35.64475801391602Q31.891123442077635,32.548068013916016,30.115923442077637,30.004888013916016Q28.376223442077638,27.512588013916016,25.622823442077635,26.250498013916015L25.623223442077638,26.249808013916017Q25.52092344207764,26.202928013916015,25.426323442077635,26.141988013916016Q25.331723442077635,26.081048013916014,25.246823442077638,26.007278013916014Q25.161823442077637,25.933518013916014,25.088223442077638,25.848418013916017Q25.014623442077635,25.763330013916015,24.953923442077638,25.668640013916015Q24.893123442077638,25.573950013916015,24.846423442077636,25.471584013916015Q24.799723442077635,25.369219013916016,24.768123442077638,25.261258013916017Q24.736423442077637,25.153296013916016,24.720423442077635,25.041931013916017Q24.704423442077637,24.930566013916014,24.704423442077637,24.818058013916016Q24.704423442077637,24.740683213916014,24.712023442077637,24.663681013916015Q24.719623442077637,24.586679013916015,24.734723442077637,24.510791013916016Q24.749823442077638,24.434903013916017,24.772323442077635,24.360860013916017Q24.794723442077636,24.286817013916014,24.824323442077638,24.215332013916015Q24.853923442077637,24.143847013916016,24.890423442077637,24.075608013916014Q24.926923442077637,24.007370013916017,24.969923442077636,23.943035013916017Q25.012923442077636,23.878700013916017,25.061923442077635,23.818889013916017Q25.111023442077638,23.759078013916017,25.16572344207764,23.704368013916017Q25.220523442077635,23.649648013916014,25.280323442077638,23.600568013916014Q25.340123442077637,23.551478013916014,25.404423442077636,23.508498013916014Q25.468723442077636,23.465508013916015,25.537023442077636,23.429028013916017Q25.605223442077637,23.392558013916016,25.676723442077638,23.362948013916014Q25.748223442077638,23.333338013916016,25.822223442077636,23.310878013916017Q25.896323442077637,23.288418013916015,25.972223442077638,23.273318013916015Q26.048123442077635,23.258228013916014,26.125123442077637,23.250638013916017Q26.202123442077635,23.243058013916016,26.279423442077636,23.243058013916016Q26.623223442077638,23.243058013916016,26.935723442077638,23.386308013916015Z" fill-rule="evenodd" fill="#FFC41F" fill-opacity="1"/></g><g><path d="M12.035960767333984,22.494694725036624Q12.774568767333985,24.24099472503662,14.120362767333985,25.58679472503662L14.120892767333984,25.58619472503662Q14.230582767333985,25.695894725036624,14.359562767333983,25.78209472503662Q14.488542767333984,25.86829472503662,14.631862767333985,25.92759472503662Q14.775172767333984,25.98699472503662,14.927322767333985,26.01729472503662Q15.079462767333984,26.04749472503662,15.234592767333984,26.04749472503662Q15.311962767333984,26.04749472503662,15.388962767333984,26.03999472503662Q15.465962767333984,26.03239472503662,15.541852767333985,26.01729472503662Q15.617742767333985,26.00219472503662,15.691782767333985,25.979694725036623Q15.765832767333984,25.957294725036622,15.837312767333984,25.92759472503662Q15.908802767333984,25.89799472503662,15.977032767333984,25.86159472503662Q16.045272767333984,25.82509472503662,16.109612767333985,25.78209472503662Q16.173942767333983,25.739094725036622,16.233752767333986,25.68999472503662Q16.293572767333984,25.64089472503662,16.348282767333984,25.58619472503662Q16.402992767333984,25.531494725036623,16.452082767333984,25.47169472503662Q16.501162767333984,25.41189472503662,16.544152767333983,25.347594725036622Q16.587142767333983,25.283194725036623,16.623612767333984,25.21499472503662Q16.660092767333985,25.14669472503662,16.689702767333984,25.07529472503662Q16.719312767333985,25.00379472503662,16.741772767333984,24.92969472503662Q16.764232767333983,24.85569472503662,16.779322767333984,24.779794725036624Q16.794422767333984,24.70389472503662,16.802002767333985,24.62689472503662Q16.809592767333985,24.549894725036623,16.809592767333985,24.47249472503662Q16.809592767333985,24.31739472503662,16.779322767333984,24.16529472503662Q16.749062767333985,24.013094725036623,16.689702767333984,23.86979472503662Q16.630332767333986,23.726494725036623,16.544152767333983,23.59749472503662Q16.457972767333985,23.46849472503662,16.348282767333984,23.35879472503662L16.348812767333985,23.35829472503662Q14.422242767333984,21.43169472503662,14.422242767333984,18.70716472503662Q14.422242767333984,15.98258472503662,16.348812767333985,14.056014725036622Q18.275382767333983,12.12944472503662,20.999962767333983,12.12944472503662Q23.724492767333984,12.12944472503662,25.651092767333985,14.056014725036622Q27.577692767333986,15.98258472503662,27.577692767333986,18.70716472503662Q27.577692767333986,21.43169472503662,25.651092767333985,23.35829472503662L25.651592767333984,23.35879472503662Q25.541992767333983,23.46849472503662,25.455792767333982,23.59749472503662Q25.369592767333984,23.726494725036623,25.310192767333984,23.86979472503662Q25.250892767333987,24.013094725036623,25.220592767333983,24.16529472503662Q25.190292767333986,24.31739472503662,25.190292767333986,24.47249472503662Q25.190292767333986,24.549894725036623,25.197892767333983,24.62689472503662Q25.205492767333986,24.70389472503662,25.220592767333983,24.779794725036624Q25.235692767333987,24.85569472503662,25.258192767333984,24.92969472503662Q25.280592767333985,25.00379472503662,25.310192767333984,25.07529472503662Q25.339792767333982,25.14669472503662,25.376292767333986,25.21499472503662Q25.412792767333983,25.283194725036623,25.455792767333982,25.347594725036622Q25.498792767333985,25.41189472503662,25.547792767333984,25.47169472503662Q25.596892767333983,25.531494725036623,25.651592767333984,25.58619472503662Q25.706392767333984,25.64089472503662,25.766192767333983,25.68999472503662Q25.825992767333986,25.739094725036622,25.89029276733398,25.78209472503662Q25.954692767333984,25.82509472503662,26.022892767333985,25.86159472503662Q26.091092767333983,25.89799472503662,26.162592767333983,25.92759472503662Q26.234092767333983,25.957294725036622,26.308092767333985,25.979694725036623Q26.382192767333983,26.00219472503662,26.458092767333984,26.01729472503662Q26.533992767333984,26.03239472503662,26.610992767333983,26.03999472503662Q26.687992767333984,26.04749472503662,26.76529276733398,26.04749472503662Q26.920492767333982,26.04749472503662,27.072592767333987,26.01729472503662Q27.224792767333984,25.98699472503662,27.368092767333984,25.927694725036623Q27.511392767333984,25.86829472503662,27.640392767333985,25.78209472503662Q27.769292767333987,25.695894725036624,27.878992767333983,25.58619472503662L27.879592767333982,25.58679472503662Q29.225392767333986,24.24099472503662,29.963992767333984,22.494694725036624Q30.729192767333984,20.68549472503662,30.729192767333984,18.70716472503662Q30.729192767333984,16.72880472503662,29.963992767333984,14.91962472503662Q29.225392767333986,13.17336472503662,27.879592767333982,11.827564725036622Q26.533792767333985,10.481770125036622,24.787492767333987,9.74316272503662Q22.978292767333983,8.977944725036622,20.999962767333983,8.977944725036622Q19.021602767333984,8.977944725036622,17.212422767333983,9.74316272503662Q15.466162767333984,10.48176862503662,14.120362767333985,11.827564725036622Q12.774568367333984,13.17336472503662,12.035960767333984,14.91962472503662Q11.270742767333985,16.72880472503662,11.270742767333985,18.70716472503662Q11.270742767333985,20.68549472503662,12.035960767333984,22.494694725036624Z" fill-rule="evenodd" fill="#FFC41F" fill-opacity="1"/></g></g></svg>