<svg xmlns="http://www.w3.org/2000/svg" xmlns:xlink="http://www.w3.org/1999/xlink" fill="none" version="1.1" width="42" height="42" viewBox="0 0 42 42"><g><g><g><path d="M15.71326,17.78499L17.086579999999998,20.1662L17.087220000000002,20.1658Q17.13882,20.2553,17.20166,20.3373Q17.264499999999998,20.4192,17.3375,20.4923Q17.4105,20.5653,17.49242,20.6282Q17.57434,20.6911,17.66376,20.742800000000003Q17.75319,20.7944,17.8486,20.834Q17.94401,20.8735,18.04376,20.9003Q18.14352,20.927,18.245910000000002,20.9405Q18.348300000000002,20.954,18.45158,20.954Q18.528959999999998,20.954,18.60596,20.9464Q18.68296,20.9388,18.75885,20.9237Q18.83474,20.9086,18.90878,20.886200000000002Q18.98282,20.8637,19.05431,20.8341Q19.125790000000002,20.8045,19.194029999999998,20.768Q19.26227,20.7315,19.3266,20.688499999999998Q19.39094,20.6455,19.45075,20.5965Q19.510559999999998,20.5474,19.565269999999998,20.4927Q19.61999,20.438000000000002,19.669069999999998,20.3781Q19.718159999999997,20.3183,19.761139999999997,20.253999999999998Q19.80413,20.189700000000002,19.840609999999998,20.1214Q19.87708,20.0532,19.906689999999998,19.9817Q19.9363,19.9102,19.958759999999998,19.836199999999998Q19.98122,19.7621,19.99632,19.6862Q20.011409999999998,19.610300000000002,20.019,19.5333Q20.02658,19.4563,20.02658,19.378999999999998Q20.02658,18.957349999999998,19.815939999999998,18.592109999999998L19.816589999999998,18.59173L18.44327,16.21052Q17.9152,15.29488,17.93337,14.27622Q17.95062,13.308869999999999,18.444580000000002,12.45375Q18.93855,11.59864,19.76791,11.10041Q20.641260000000003,10.57575,21.6983,10.57575Q22.7305,10.57575,23.5977,11.07832Q24.420099999999998,11.55486,24.9155,12.36729Q25.406,13.17177,25.4348,14.07704Q25.4651,15.02958,24.9633,15.89574Q24.261,17.107950000000002,23.892899999999997,17.61011Q22.183,19.9422,17.42149,24.055799999999998Q14.9014,26.2329,12.18989,28.1039Q10.9177992,28.9817,10.183513,30.323Q9.42425,31.7099,9.42425,33.2589L9.42425,36.638000000000005L9.425,36.638000000000005Q9.425,36.7154,9.43258,36.7924Q9.44017,36.8694,9.455259999999999,36.9452Q9.47036,37.021100000000004,9.49282,37.0952Q9.51528,37.169200000000004,9.54489,37.240700000000004Q9.5745,37.312200000000004,9.61097,37.3804Q9.64745,37.4487,9.69044,37.513000000000005Q9.73342,37.5773,9.78251,37.637100000000004Q9.83159,37.697,9.88631,37.7517Q9.94102,37.8064,10.000831,37.8555Q10.060642,37.9046,10.124977,37.947500000000005Q10.189312,37.9905,10.25755,38.027Q10.325789,38.063500000000005,10.397274,38.0931Q10.468759,38.122699999999995,10.542802,38.1452Q10.616845,38.1676,10.692733,38.1827Q10.768621,38.1978,10.845623,38.2054Q10.9226252,38.213,11,38.213Q11.0773748,38.213,11.154377,38.2054Q11.231379,38.1978,11.307267,38.1827Q11.383155,38.1676,11.457198,38.1452Q11.531241,38.122699999999995,11.602726,38.0931Q11.674211,38.063500000000005,11.74245,38.027Q11.810688,37.9905,11.875023,37.947500000000005Q11.939358,37.9046,11.999169,37.8555Q12.05898,37.8064,12.11369,37.7517Q12.16841,37.697,12.21749,37.637100000000004Q12.26658,37.5773,12.30956,37.513000000000005Q12.35255,37.4487,12.38903,37.3804Q12.4255,37.312200000000004,12.45511,37.240700000000004Q12.48472,37.169200000000004,12.50718,37.0952Q12.52964,37.021100000000004,12.544740000000001,36.9452Q12.55983,36.8694,12.56742,36.7924Q12.575,36.7154,12.575,36.638000000000005L12.57575,36.638000000000005L12.57575,33.2589Q12.57575,32.5161,12.94789,31.8363Q13.32311,31.1509,13.97975,30.6978Q16.83212,28.7296,19.481749999999998,26.4406Q20.224980000000002,25.7985,20.90035,25.1941Q22.583199999999998,26.9392,24.5868,28.5715Q25.9145,29.6532,27.3832,30.6855Q28.78,31.6673,28.78,33.2491L28.78,36.638000000000005L28.7808,36.638000000000005Q28.7808,36.7153,28.7883,36.7923Q28.7959,36.8694,28.811,36.9452Q28.8261,37.021100000000004,28.8486,37.0952Q28.871,37.169200000000004,28.9006,37.240700000000004Q28.9303,37.312200000000004,28.9667,37.3804Q29.0032,37.4487,29.0462,37.513000000000005Q29.0892,37.5773,29.1383,37.637100000000004Q29.1874,37.697,29.2421,37.7517Q29.2968,37.8064,29.3566,37.8555Q29.4164,37.9046,29.4807,37.947500000000005Q29.5451,37.9905,29.6133,38.027Q29.6815,38.063500000000005,29.753,38.0931Q29.8245,38.122699999999995,29.8986,38.1452Q29.9726,38.1676,30.0485,38.1827Q30.1244,38.1978,30.2014,38.2054Q30.2784,38.213,30.3558,38.213Q30.4331,38.213,30.5101,38.2054Q30.5871,38.1978,30.663,38.1827Q30.7389,38.1676,30.813,38.1452Q30.887,38.122699999999995,30.9585,38.0931Q31.03,38.063500000000005,31.0982,38.027Q31.1664,37.9905,31.2308,37.947500000000005Q31.2951,37.9046,31.3549,37.8555Q31.4147,37.8064,31.4694,37.7517Q31.5242,37.697,31.5732,37.637100000000004Q31.6223,37.5773,31.6653,37.513000000000005Q31.7083,37.4487,31.7448,37.3804Q31.7813,37.312200000000004,31.8109,37.240700000000004Q31.8405,37.169200000000004,31.8629,37.0952Q31.8854,37.021100000000004,31.9005,36.9452Q31.9156,36.8694,31.9232,36.7924Q31.9308,36.7154,31.9308,36.638000000000005L31.9315,36.638000000000005L31.9315,33.2491Q31.9315,31.7076,31.1789,30.3243Q30.4537,28.9915,29.1954,28.1071Q27.8182,27.1392,26.5773,26.1282Q24.7437,24.6344,23.207900000000002,23.046799999999998Q25.3328,20.9762,26.4344,19.4735Q26.902900000000002,18.83456,27.6902,17.475540000000002Q28.6437,15.829830000000001,28.5847,13.97681Q28.5295,12.24078,27.6062,10.72664Q26.6936,9.229926,25.177799999999998,8.351556Q23.5776,7.42425,21.6983,7.42425Q19.76742,7.42425,18.14501,8.398904Q16.6172,9.316718999999999,15.71567,10.877369999999999Q14.81415,12.43801,14.78237,14.220030000000001Q14.748619999999999,16.11239,15.71326,17.78499Z" fill-rule="evenodd" fill="#B3B3B3" fill-opacity="1"/></g></g><g><g><ellipse cx="21" cy="21" rx="19.424251198768616" ry="19.424251198768616" fill-opacity="0" stroke-opacity="1" stroke="#B3B3B3" fill="none" stroke-width="3.1514976024627686"/></g></g></g></svg>