<svg xmlns="http://www.w3.org/2000/svg" xmlns:xlink="http://www.w3.org/1999/xlink" fill="none" version="1.1" width="54.3447265625" height="55.875" viewBox="0 0 54.3447265625 55.875"><g><g><path d="M9.112717,20.38322Q8.625,19.88843,8.625,19.1875Q8.625,18.486569,9.112717,17.991784Q9.597476,17.5,10.28125,17.5L23.2187,17.5Q23.9025,17.5,24.3873,17.991784Q24.875,18.486569,24.875,19.1875Q24.875,19.88843,24.3873,20.38322Q23.9025,20.875,23.2187,20.875L10.28125,20.875Q9.597475,20.875,9.112717,20.38322ZM9.112641,31.321199999999997Q8.625,30.826700000000002,8.625,30.125Q8.625,29.423299999999998,9.112641,28.928800000000003Q9.597179,28.4375,10.28125,28.4375L34,28.4375Q34.684799999999996,28.4375,35.169,28.928800000000003Q35.6562,29.423000000000002,35.6562,30.125Q35.6562,30.826999999999998,35.169,31.321199999999997Q34.684799999999996,31.8125,34,31.8125L10.28125,31.8125Q9.597179,31.8125,9.112641,31.321199999999997ZM54.3447,38.587199999999996Q54.3447,39.2883,53.8574,39.7832L38.480000000000004,55.3835Q37.9955,55.875,37.3112,55.875L29.6875,55.875Q29.0037,55.875,28.519,55.3832Q28.0312,54.8884,28.0312,54.1875L28.0312,46.454Q28.0312,45.7526,28.5187,45.257999999999996L43.8961,29.6571Q44.3806,29.1655,45.0649,29.1655Q45.7492,29.1655,46.2337,29.6571L53.8573,37.3911Q54.3447,37.885999999999996,54.3447,38.587199999999996ZM36.6269,52.5L49.995,38.9375L50.3409,38.5865L45.0649,33.234L31.3437,47.1548L31.3437,52.5L36.6269,52.5ZM24.3874,39.8664Q24.875,40.3608,24.875,41.0625Q24.875,41.7642,24.3874,42.258700000000005Q23.9028,42.75,23.2187,42.75L10.28125,42.75Q9.597179,42.75,9.112641,42.258700000000005Q8.625,41.7642,8.625,41.0625Q8.625,40.3608,9.112641,39.8664Q9.59718,39.375,10.28125,39.375L23.2187,39.375Q23.9028,39.375,24.3874,39.8664Z" fill-rule="evenodd" fill="#969696" fill-opacity="1"/></g><g><path d="M22.231,52.9918Q22.7188,53.4866,22.7188,54.1875Q22.7188,54.8884,22.231,55.3832Q21.7463,55.875,21.0625,55.875L1.65625,55.875Q0.97248,55.875,0.487718,55.3832Q0,54.8884,0,54.1875L0,1.6875Q0,0.98657,0.487717,0.491785Q0.972476,0,1.65625,0L34.7183,0Q35.3936,0,35.8766,0.481509L45.9398,10.5211Q46.4375,11.0185,46.4375,11.7274L46.4375,22.4688Q46.4375,23.1697,45.9498,23.6645Q45.465,24.1562,44.7812,24.1562Q44.0975,24.1562,43.6127,23.6645Q43.125,23.1697,43.125,22.4688L43.125,16.5L33.998,16.5Q32.4271,16.5,31.3091,15.3674Q30.1882,14.2318,30.1855,12.6307L30.1776,3.375L3.3125,3.375L3.3125,52.5L21.0625,52.5Q21.7463,52.5,22.231,52.9918ZM43.8152,13.125L34.3444,3.67621L33.4903,2.82411L33.4984,13.125L43.8152,13.125Z" fill-rule="evenodd" fill="#969696" fill-opacity="1"/></g></g></svg>