<svg xmlns="http://www.w3.org/2000/svg" xmlns:xlink="http://www.w3.org/1999/xlink" fill="none" version="1.1" width="55.75" height="53.00390625" viewBox="0 0 55.75 53.00390625"><g transform="matrix(-1,0,0,1,111.5,0)"><g transform="matrix(-1,0,0,1,219.5,0)"><path d="M154.4632,6.715L154.4631,17.25Q154.4631,17.336,154.4716,17.4215Q154.48,17.5071,154.4968,17.5914Q154.5135,17.6757,154.5385,17.758Q154.5634,17.8403,154.59629999999999,17.9197Q154.6292,17.9991,154.6698,18.0749Q154.7103,18.1508,154.7581,18.2222Q154.8058,18.2937,154.8604,18.3602Q154.9149,18.4266,154.97570000000002,18.4874Q155.0365,18.5482,155.1029,18.6028Q155.1694,18.6573,155.2409,18.7051Q155.3124,18.7528,155.38819999999998,18.7934Q155.464,18.8339,155.5434,18.8668Q155.62290000000002,18.8997,155.70510000000002,18.9246Q155.7874,18.9496,155.8717,18.9664Q155.95600000000002,18.9831,156.04160000000002,18.9916Q156.12720000000002,19,156.2131,19Q156.2991,19,156.3847,18.9916Q156.4702,18.9831,156.5545,18.9664Q156.6389,18.9496,156.7211,18.9246Q156.8034,18.8997,156.8828,18.8668Q156.9623,18.8339,157.0381,18.7934Q157.1139,18.7528,157.18540000000002,18.7051Q157.2569,18.6573,157.32330000000002,18.6028Q157.3898,18.5482,157.4506,18.4874Q157.5114,18.4266,157.5659,18.3602Q157.6204,18.2937,157.6682,18.2222Q157.716,18.1508,157.75650000000002,18.0749Q157.797,17.9991,157.8299,17.9197Q157.8628,17.8403,157.8878,17.758Q157.9127,17.6757,157.9295,17.5914Q157.9463,17.5071,157.9547,17.4215Q157.9631,17.336,157.9631,17.25L157.9632,6.715Q157.9632,3.91741,155.9801,1.953526Q154.0075,0,151.2132,0L114.75,0Q111.95406,0,109.977029,1.977029Q108,3.95406,108,6.75L108,46.2541Q108,49.05,109.977054,51.027Q111.9541,53.0041,114.75007,53.0041L128.75,53.0039Q128.836,53.0039,128.9215,52.9955Q129.0071,52.9871,129.0914,52.9703Q129.1757,52.9535,129.258,52.9286Q129.3403,52.9036,129.4197,52.8707Q129.4991,52.8378,129.575,52.7973Q129.6508,52.7567,129.7223,52.709Q129.7937,52.6612,129.8602,52.6067Q129.9267,52.5521,129.9874,52.4913Q130.0482,52.4306,130.1028,52.3641Q130.1573,52.2976,130.20510000000002,52.2262Q130.2528,52.1547,130.2934,52.0789Q130.3339,52.003,130.3668,51.9236Q130.3997,51.8442,130.4246,51.7619Q130.4496,51.6796,130.4664,51.5953Q130.4831,51.511,130.4916,51.4254Q130.5,51.3399,130.5,51.2539Q130.5,51.1679,130.4916,51.0824Q130.4831,50.9968,130.4664,50.9125Q130.4496,50.8282,130.4246,50.7459Q130.3997,50.6636,130.3668,50.5842Q130.3339,50.5048,130.2934,50.429Q130.2528,50.3531,130.20510000000002,50.2817Q130.1573,50.2102,130.1028,50.1437Q130.0482,50.0773,129.9874,50.0165Q129.9266,49.9557,129.8602,49.9011Q129.7937,49.8466,129.7222,49.7988Q129.6508,49.7511,129.5749,49.7105Q129.4991,49.67,129.4197,49.6371Q129.3403,49.6042,129.258,49.5793Q129.1757,49.5543,129.0914,49.5375Q129.0071,49.5208,128.9215,49.5123Q128.836,49.5039,128.75,49.5039L114.75003,49.5041Q113.40383,49.5041,112.45191,48.5522Q111.5,47.6003,111.5,46.2541L111.5,6.75Q111.5,3.5,114.75,3.5L151.2132,3.5Q152.5677,3.5,153.5173,4.4404Q154.4632,5.37712,154.4632,6.715Z" fill-rule="evenodd" fill="#969696" fill-opacity="1"/></g><g transform="matrix(-1,0,0,1,173.5,0)"><path d="M86.75,48.75C86.75,50.9591,88.54086,52.75,90.75,52.75L113.75,52.75C115.9591,52.75,117.75,50.9591,117.75,48.75L117.75,30.706400000000002C117.75,30.101599999999998,117.4763,29.5293,117.0055,29.1496L103.5055,18.2625C102.7728,17.671605,101.7272,17.671605,100.9945,18.2625L87.494495,29.1496C87.023697,29.5293,86.75,30.101599999999998,86.75,30.706400000000002L86.75,48.75ZM90.25,48.75Q90.25,49.25,90.75,49.25L113.75,49.25Q114.25,49.25,114.25,48.75L114.25,31.4237L102.25,21.74633L90.25,31.4237L90.25,48.75Z" fill-rule="evenodd" fill="#969696" fill-opacity="1"/></g><g><g><rect x="83.333740234375" y="10.5" width="5" height="5" rx="1" fill="#969696" fill-opacity="1"/></g><g><rect x="94.333740234375" y="10.5" width="5" height="5" rx="1" fill="#969696" fill-opacity="1"/></g><g><rect x="94.333740234375" y="21.5" width="5" height="5" rx="1" fill="#969696" fill-opacity="1"/></g><g><rect x="94.333740234375" y="31.5" width="5" height="5" rx="1" fill="#969696" fill-opacity="1"/></g></g></g></svg>