<svg xmlns="http://www.w3.org/2000/svg" xmlns:xlink="http://www.w3.org/1999/xlink" fill="none" version="1.1" width="53.75" height="55.75" viewBox="0 0 53.75 55.75"><g><g><path d="M13.354563651428222,32.37317657470703L22.90705365142822,32.37317657470703Q23.606853651428224,32.37317657470703,24.102153651428225,32.87845757470703Q24.599153651428225,33.385476574707035,24.599153651428225,34.10352657470703Q24.599153651428225,34.821566574707035,24.102153651428225,35.32858657470703Q23.606853651428224,35.833876574707034,22.90705365142822,35.833876574707034L13.354563651428222,35.833876574707034Q12.654801651428222,35.833876574707034,12.159481651428223,35.32858657470703Q11.662453651428223,34.821566574707035,11.662453651428223,34.10352657470703Q11.662453651428223,33.38548657470703,12.159482651428222,32.87845757470703Q12.654802651428223,32.37317657470703,13.354563651428222,32.37317657470703Z" fill-rule="evenodd" fill="#969696" fill-opacity="1"/></g><g><path d="M13.354563651428222,12.565596580505371L38.16455365142822,12.565596580505371Q38.86435365142822,12.565596580505371,39.35965365142822,13.070877580505371Q39.85665365142822,13.57790658050537,39.85665365142822,14.29594658050537Q39.85665365142822,15.01436658050537,39.35895365142822,15.520806580505372Q38.86225365142822,16.02629658050537,38.15765365142822,16.02629658050537L13.354563651428222,16.02629658050537Q12.654801651428222,16.02629658050537,12.159481651428223,15.521006580505372Q11.662453651428223,15.013986580505371,11.662453651428223,14.29594658050537Q11.662453651428223,13.57789658050537,12.159482651428222,13.070877580505371Q12.654802651428223,12.565596580505371,13.354563651428222,12.565596580505371ZM32.42295365142822,25.42639658050537Q31.926453651428222,25.93409658050537,31.228053651428223,25.93409658050537L13.354563651428222,25.93409658050537Q12.654800651428223,25.93409658050537,12.159481651428223,25.42879658050537Q11.662453651428223,24.921796580505372,11.662453651428223,24.20379658050537Q11.662453651428223,23.48569658050537,12.159482651428222,22.97869658050537Q12.654802651428223,22.47340658050537,13.354563651428222,22.47340658050537L31.228053651428223,22.47340658050537Q31.927853651428222,22.47340658050537,32.42315365142822,22.97869658050537Q32.92015365142822,23.48569658050537,32.92015365142822,24.20379658050537Q32.92015365142822,24.91789658050537,32.42295365142822,25.42639658050537Z" fill-rule="evenodd" fill="#969696" fill-opacity="1"/></g><g><path d="M46.4632,5.74127L46.4632,26.5021Q46.4632,26.588,46.4716,26.6736Q46.48,26.7591,46.4968,26.8435Q46.5136,26.9278,46.5385,27.01Q46.5635,27.0923,46.5964,27.1717Q46.6293,27.2512,46.6698,27.327Q46.7103,27.4028,46.7581,27.4743Q46.8059,27.5458,46.8604,27.6122Q46.9149,27.6787,46.9757,27.7395Q47.0365,27.8003,47.103,27.8548Q47.1694,27.9094,47.2409,27.9571Q47.3124,28.0049,47.3882,28.0454Q47.4641,28.0859,47.5435,28.1188Q47.6229,28.1517,47.7052,28.1767Q47.7874,28.2017,47.8718,28.2184Q47.9561,28.2352,48.0417,28.2436Q48.1272,28.2521,48.2132,28.2521Q48.2992,28.2521,48.3847,28.2436Q48.4703,28.2352,48.5546,28.2184Q48.6389,28.2017,48.7212,28.1767Q48.8034,28.1517,48.8829,28.1188Q48.9623,28.0859,49.0381,28.0454Q49.1139,28.0049,49.1854,27.9571Q49.2569,27.9094,49.3234,27.8548Q49.3898,27.8003,49.4506,27.7395Q49.5114,27.6787,49.5659,27.6122Q49.6205,27.5458,49.6682,27.4743Q49.716,27.4028,49.7565,27.327Q49.7971,27.2512,49.83,27.1717Q49.8629,27.0923,49.8878,27.01Q49.9128,26.9278,49.9296,26.8435Q49.9463,26.7591,49.9548,26.6736Q49.9632,26.588,49.9632,26.5021L49.9632,5.74127Q49.9632,3.35883,48.2772,1.6779027Q46.5942,0,44.2132,0L5.75,0Q3.36827,0,1.684136,1.6841362Q0,3.36827,0,5.75L0,47.2541Q0,49.6358,1.6841363,51.32Q3.36827,53.0041,5.75,53.0041L26.5304,53.0041Q26.6163,53.0041,26.7019,52.9957Q26.7875,52.9872,26.8718,52.9705Q26.9561,52.9537,27.0384,52.9287Q27.1206,52.9038,27.2001,52.8709Q27.2795,52.838,27.3553,52.7975Q27.4311,52.7569,27.5026,52.7092Q27.5741,52.6614,27.6406,52.6069Q27.707,52.5523,27.7678,52.4915Q27.8286,52.4307,27.8831,52.3643Q27.9377,52.2978,27.9854,52.2263Q28.0332,52.1549,28.0737,52.079Q28.1143,52.0032,28.1472,51.9238Q28.1801,51.8444,28.205,51.7621Q28.23,51.6798,28.2467,51.5955Q28.2635,51.5112,28.2719,51.4256Q28.2804,51.3401,28.2804,51.2541Q28.2804,51.1681,28.2719,51.0826Q28.2635,50.997,28.2467,50.9127Q28.23,50.8284,28.205,50.7461Q28.1801,50.6638,28.1472,50.5844Q28.1143,50.505,28.0737,50.4292Q28.0332,50.3533,27.9854,50.2818Q27.9377,50.2104,27.8831,50.1439Q27.8286,50.0775,27.7678,50.0167Q27.707,49.9559,27.6406,49.9013Q27.5741,49.8468,27.5026,49.799Q27.4311,49.7513,27.3553,49.7107Q27.2795,49.6702,27.2001,49.6373Q27.1206,49.6044,27.0384,49.5795Q26.9561,49.5545,26.8718,49.5377Q26.7875,49.521,26.7019,49.5125Q26.6163,49.5041,26.5304,49.5041L5.75,49.5041Q3.5,49.5041,3.5,47.2541L3.5,5.75Q3.5,3.5,5.75,3.5L44.2132,3.5Q45.1475,3.5,45.806,4.15651Q46.4632,4.8116699999999994,46.4632,5.74127Z" fill-rule="evenodd" fill="#969696" fill-opacity="1"/></g><g><path d="M42.088866564941405,54.992467602539065L51.20366656494141,45.64036760253906Q52.454466564941406,44.356967602539065,53.11376656494141,42.68576760253906Q53.7499665649414,41.072967602539066,53.7499665649414,39.324057602539064Q53.7499665649414,37.575157602539065,53.11376656494141,35.96232760253906Q52.454466564941406,34.291107602539064,51.20366656494141,33.00778760253906Q49.07466656494141,30.820994602539063,45.93426656494141,30.690708312539062Q42.920666564941406,30.56568460253906,40.303366564941406,32.385707602539064Q37.684966564941405,30.564151602539063,34.67132656494141,30.689200652539064Q31.532836564941405,30.81943060253906,29.402976564941405,33.00476760253906Q28.152206564941405,34.28811760253906,27.492928564941405,35.95936760253906Q26.856666564941406,37.572267602539064,26.856666564941406,39.321417602539064Q26.856666564941406,41.070567602539064,27.492915564941406,42.68396760253906Q28.152166564941407,44.35576760253906,29.402886564941404,45.64026760253906L38.517766564941404,54.992467602539065Q39.256066564941406,55.74996760253906,40.303366564941406,55.74996760253906Q41.350666564941406,55.74996760253906,42.088866564941405,54.992467602539065ZM45.2452665649414,33.55634760253906Q47.6240665649414,33.39127760253906,49.2161665649414,35.02477760253906Q50.94746656494141,36.803447602539066,50.94746656494141,39.323677602539064Q50.94756656494141,41.84386760253906,49.21626656494141,43.62016760253906L40.303366564941406,52.76826760253906L31.390386564941405,43.62026760253906Q29.659156564941405,41.84386760253906,29.659156564941405,39.32254760253906Q29.659156564941405,36.80119760253906,31.390356564941406,35.02489760253906Q32.83529656494141,33.54232760253906,34.9584665649414,33.54232760253906Q37.33656656494141,33.54232760253906,39.290666564941404,35.18276760253906Q39.730166564941406,35.55400760253906,40.303366564941406,35.55401760253906Q40.87646656494141,35.55400760253906,41.31666656494141,35.18221760253906Q43.06866656494141,33.70739760253906,45.2452665649414,33.55634760253906Z" fill-rule="evenodd" fill="#969696" fill-opacity="1"/></g></g></svg>