<svg xmlns="http://www.w3.org/2000/svg" xmlns:xlink="http://www.w3.org/1999/xlink" fill="none" version="1.1" width="42.400000005960464" height="42.400000005960464" viewBox="0 0 42.400000005960464 42.400000005960464"><g><path d="M21.200000002980232,0.20000000298023224C9.620410002980233,0.20000000298023224,0.20000000298023224,9.620410002980233,0.20000000298023224,21.200000002980232C0.20000000298023224,32.77960000298023,9.620410002980233,42.20000000298023,21.200000002980232,42.20000000298023C32.77960000298023,42.20000000298023,42.20000000298023,32.77960000298023,42.20000000298023,21.200000002980232C42.20000000298023,9.620410002980233,32.77960000298023,0.20000000298023224,21.200000002980232,0.20000000298023224ZM4.5576100029802324,13.060600002980232C6.353290002980232,14.812600002980233,9.264180002980233,17.140500002980232,13.800600002980232,18.059400002980233C10.817000002980233,22.909900002980233,8.192590002980232,28.452500002980234,6.567030002980232,32.551300002980234C4.127230002980232,29.413600002980232,2.671790002980232,25.47330000298023,2.671790002980232,21.200000002980232C2.671790002980232,18.281800002980233,3.350800002980232,15.519300002980232,4.5576100029802324,13.060600002980232ZM34.95770000298023,33.596700002980235C33.91080000298023,30.869000002980233,32.10640000298024,28.798600002980233,29.646200002980233,27.542300002980234C29.950100002980232,26.143600002980232,29.862900002980233,24.858200002980233,29.37580000298023,23.809900002980232C27.77500000298023,20.36830000298023,22.904100002980233,20.670700002980233,19.099000002980233,21.530100002980234L19.64420000298023,23.940800002980232C23.70810000298023,23.023300002980232,26.438700002980234,23.354800002980234,27.13520000298023,24.852400002980232C27.36200000298023,25.34100000298023,27.399800002980232,25.963300002980233,27.29510000298023,26.64230000298023C23.885500002980233,25.72190000298023,20.259300002980233,26.238100002980232,17.970700002980234,27.290800002980234C16.05290000298023,28.17330000298023,14.835900002980232,29.961800002980233,14.795200002980232,31.95660000298023C14.760300002980232,33.70580000298023,15.657400002980232,35.26160000298023,17.137600002980232,36.016200002980234C17.640600002980232,36.273500002980235,18.382200002980234,36.520700002980234,19.36650000298023,36.520700002980234C20.87580000298023,36.520700002980234,22.95790000298023,35.93770000298023,25.63180000298023,33.912200002980235C26.85460000298023,32.98610000298023,28.01920000298023,31.508800002980234,28.80870000298023,29.896300002980233C30.864700002980232,31.04350000298023,32.263400002980234,32.92210000298023,32.98610000298023,35.486900002980235C29.78150000298023,38.134600002980235,25.673900002980233,39.72820000298023,21.201500002980232,39.72820000298023C16.253500002980232,39.72820000298023,11.752000002980232,37.778400002980234,8.425230002980232,34.60730000298023C10.138040002980233,30.03590000298023,13.182700002980232,23.61360000298023,16.49780000298023,18.412700002980234C18.16410000298023,18.51740000298023,20.012100002980233,18.437400002980233,22.056400002980233,18.10450000298023C26.171200002980232,17.434200002980234,28.952700002980233,15.389900002980232,29.49790000298023,12.636000002980232C29.865800002980233,10.779200002980232,29.108300002980233,8.964660002980231,27.565600002980233,8.013750002980231C25.75680000298023,6.898540002980233,23.369400002980232,7.248950002980232,21.178200002980233,8.951580002980233C19.20660000298023,10.484100002980233,17.179700002980233,12.941300002980233,15.253200002980233,15.802800002980232C10.401200002980232,15.112100002980233,7.551380002980232,12.596700002980231,5.8429400029802325,10.847600002980233C9.174040002980233,5.918550002980232,14.814100002980233,2.671790002980232,21.200000002980232,2.671790002980232C31.41720000298023,2.671790002980232,39.72820000298023,10.984300002980232,39.72820000298023,21.200000002980232C39.72820000298023,25.963300002980233,37.92090000298023,30.310700002980234,34.95770000298023,33.596700002980235ZM26.491100002980232,28.983200002980233C25.889100002980232,30.16100000298023,25.03420000298023,31.26310000298023,24.138500002980233,31.942100002980233C21.732200002980232,33.76390000298023,19.535200002980233,34.46480000298023,18.25860000298023,33.814800002980235C17.620300002980233,33.48910000298023,17.24950000298023,32.81450000298023,17.265500002980232,32.00750000298024C17.28730000298023,30.95050000298023,17.935800002980233,30.027200002980234,19.003000002980233,29.53720000298023C20.047000002980234,29.05740000298023,21.740900002980233,28.637200002980233,23.625300002980232,28.637200002980233C24.552900002980234,28.635700002980233,25.525600002980234,28.737500002980234,26.491100002980232,28.983200002980233ZM18.13210000298023,15.983100002980231C19.664600002980233,13.838400002980233,21.21890000298023,12.050000002980232,22.693200002980234,10.904300002980232C23.590400002980232,10.207800002980232,24.483100002980233,9.844330002980232,25.243500002980234,9.844330002980232C25.62300000298023,9.844330002980232,25.969100002980234,9.934470002980232,26.265700002980232,10.117680002980233C26.92000000298023,10.521900002980232,27.23550000298023,11.321600002980233,27.071200002980234,12.156200002980233C26.73530000298023,13.854400002980233,24.70990000298023,15.167400002980232,21.656600002980234,15.664700002980233C20.395900002980234,15.869700002980233,19.224000002980233,15.970000002980232,18.13210000298023,15.983100002980231Z" fill="#FFC82F" fill-opacity="1"/><path d="M40.731300002980234,29.44440000298023Q42.400000002980235,25.505800002980234,42.400000002980235,21.200000002980232Q42.400000002980235,16.89420000298023,40.731300002980234,12.955600002980232Q39.11990000298023,9.152390002980232,36.183800002980234,6.216230002980232Q33.24750000298023,3.2800600029802323,29.44440000298023,1.6687200029802323Q25.505800002980234,0.0000010029802322286674,21.200000002980232,0.0000020029802322296675Q16.89420000298023,2.980232227667301e-9,12.955600002980232,1.6687200029802323Q9.152410002980233,3.280050002980232,6.216230002980232,6.216230002980232Q3.2800600029802323,9.152420002980232,1.6687200029802323,12.955600002980232Q0.0000010029802322286674,16.89420000298023,0.0000020029802322296675,21.200000002980232Q2.980232227667301e-9,25.505800002980234,1.6687200029802323,29.44440000298023Q3.280050002980232,33.247600002980235,6.216230002980232,36.183800002980234Q9.152390002980232,39.11990000298023,12.955600002980232,40.731300002980234Q16.89420000298023,42.400000002980235,21.200000002980232,42.400000002980235Q25.505800002980234,42.400000002980235,29.44440000298023,40.731300002980234Q33.247600002980235,39.120000002980234,36.183800002980234,36.183800002980234Q39.120000002980234,33.247600002980235,40.731300002980234,29.44440000298023ZM40.36300000298023,13.111600002980232Q42.00000000298023,16.975500002980233,42.00000000298023,21.200000002980232Q42.00000000298023,25.42450000298023,40.36300000298023,29.288400002980232Q38.78200000298023,33.01980000298023,35.90090000298023,35.90090000298023Q33.01980000298023,38.78200000298023,29.288400002980232,40.36300000298023Q25.42460000298023,42.00000000298023,21.200000002980232,42.00000000298023Q16.975500002980233,42.00000000298023,13.111600002980232,40.36300000298023Q9.380170002980233,38.78200000298023,6.499080002980232,35.90090000298023Q3.617970002980232,33.01980000298023,2.037020002980232,29.288400002980232Q0.40000000298023225,25.42460000298023,0.40000200298023225,21.200000002980232Q0.4000050029802322,16.975500002980233,2.037030002980232,13.111600002980232Q3.6179800029802323,9.380170002980233,6.499080002980232,6.499080002980232Q9.380180002980232,3.617970002980232,13.111600002980232,2.037020002980232Q16.975400002980233,0.40000000298023225,21.200000002980232,0.40000200298023225Q25.42450000298023,0.4000050029802322,29.288400002980232,2.037030002980232Q33.01980000298023,3.617970002980232,35.90090000298023,6.499080002980232Q38.78200000298023,9.380160002980233,40.36300000298023,13.111600002980232ZM38.64030000298023,28.025500002980234Q39.92820000298023,24.747000002980233,39.92820000298023,21.200000002980232Q39.92820000298023,17.396500002980233,38.45410000298023,13.917200002980232Q37.03070000298023,10.557300002980233,34.437000002980234,7.963570002980232Q31.843100002980233,5.369600002980232,28.483400002980233,3.9460800029802323Q25.00390000298023,2.4717900029802324,21.200000002980232,2.4717900029802324Q16.441700002980234,2.4717900029802324,12.280300002980232,4.735610002980232Q8.250570002980233,6.927830002980232,5.677230002980232,10.735600002980233L5.585940002980232,10.870700002980232L5.699870002980232,10.987300002980232Q7.468520002980232,12.798100002980233,9.265160002980233,13.892900002980232Q11.962200002980232,15.536300002980232,15.225000002980233,16.000800002980235L15.349100002980233,16.018500002980232L15.419100002980231,15.914500002980231Q18.573200002980233,11.229700002980232,21.30090000298023,9.109500002980232Q22.902700002980232,7.864870002980232,24.544300002980233,7.623850002980232Q26.166000002980233,7.3857800029802325,27.460600002980232,8.184010002980232Q28.562600002980233,8.863260002980232,29.063700002980234,10.062300002980232Q29.565900002980232,11.264000002980232,29.301700002980233,12.597100002980232Q28.90790000298023,14.586300002980233,26.997300002980232,15.990400002980232Q25.062800002980232,17.41210000298023,22.024300002980233,17.907100002980233Q19.13330000298023,18.377900002980233,16.510300002980234,18.213100002980234L16.39260000298023,18.205700002980233L16.329100002980233,18.305200002980232Q13.959300002980232,22.023200002980232,11.681200002980232,26.65780000298023Q9.615800002980233,30.859600002980233,8.237950002980233,34.53710000298023L8.191580002980231,34.66080000298023L8.287240002980232,34.75200000298023Q10.859100002980233,37.203700002980234,14.129600002980233,38.54200000298023Q17.517000002980232,39.92820000298023,21.201500002980232,39.92820000298023Q24.533200002980234,39.92820000298023,27.63810000298023,38.78820000298023Q30.637000002980233,37.687200002980234,33.113400002980235,35.64110000298023L33.21390000298023,35.55810000298023L33.17860000298023,35.43270000298023Q32.06640000298023,31.485000002980232,28.90620000298023,29.72170000298023L28.72190000298023,29.618800002980233L28.62910000298023,29.808400002980232Q27.39740000298023,32.324000002980235,25.511000002980232,33.75280000298023Q22.12100000298023,36.32070000298023,19.36650000298023,36.32070000298023Q18.172000002980234,36.32070000298023,17.228400002980234,35.83800000298023Q16.171200002980232,35.29900000298023,15.571500002980232,34.25940000298023Q14.970100002980232,33.217000002980235,14.995100002980232,31.960700002980232Q15.024500002980233,30.52390000298023,15.844400002980231,29.319100002980232Q16.666500002980232,28.111100002980233,18.05430000298023,27.472500002980233Q19.867700002980232,26.638300002980234,22.230400002980232,26.425800002980232Q24.852300002980233,26.190100002980234,27.24300000298023,26.835400002980233L27.458800002980233,26.893600002980232L27.492800002980232,26.67280000298023Q27.669300002980233,25.527900002980232,27.31650000298023,24.768100002980233Q26.747400002980232,23.544300002980233,24.676700002980233,23.292400002980234Q22.745900002980232,23.057600002980234,19.795400002980234,23.702300002980234L19.338300002980233,21.681700002980232Q22.688600002980234,20.94880000298023,25.038100002980233,21.25550000298023Q28.15640000298023,21.66250000298023,29.19440000298023,23.89420000298023Q29.902900002980232,25.419000002980233,29.450800002980234,27.499800002980233L29.418100002980232,27.65040000298023L29.555300002980232,27.72040000298023Q33.203100002980236,29.58310000298023,34.770900002980234,33.668400002980235L34.887800002980235,33.97290000298023L35.10620000298023,33.730700002980235Q37.397000002980235,31.190300002980234,38.64030000298023,28.025500002980234ZM38.085800002980235,14.073200002980233Q39.528200002980235,17.47770000298023,39.528200002980235,21.200000002980232Q39.528200002980235,24.67130000298023,38.26800000298023,27.879200002980234Q37.110200002980235,30.826600002980232,35.02360000298023,33.22090000298023Q33.41470000298023,29.30120000298023,29.87300000298023,27.434600002980233Q30.296200002980232,25.31630000298023,29.55720000298023,23.725600002980233Q28.42630000298023,21.294400002980233,25.089900002980233,20.85880000298023Q22.601700002980234,20.534000002980232,19.054900002980233,21.335000002980234L18.859800002980233,21.37900000298023L19.49330000298023,24.179900002980233L19.68830000298023,24.135900002980232Q22.702900002980233,23.45530000298023,24.628400002980232,23.689500002980232Q26.478400002980234,23.914500002980233,26.95380000298023,24.93680000298023Q27.222500002980233,25.515300002980233,27.126600002980233,26.391600002980233Q24.767100002980232,25.796100002980232,22.19460000298023,26.027400002980233Q19.76320000298023,26.24610000298023,17.887100002980233,27.10910000298023Q16.398300002980232,27.794200002980233,15.513700002980233,29.094100002980234Q14.627000002980232,30.39700000298023,14.595200002980233,31.952600002980233Q14.567900002980233,33.32040000298023,15.225000002980233,34.459300002980235Q15.884000002980232,35.601600002980234,17.04670000298023,36.19440000298023Q18.07570000298023,36.72070000298023,19.36650000298023,36.72070000298023Q22.25540000298023,36.72070000298023,25.75250000298023,34.07170000298023Q27.642100002980232,32.64040000298023,28.893100002980233,30.175400002980233Q31.70970000298023,31.839600002980234,32.75750000298023,35.41570000298023Q30.373800002980232,37.357600002980234,27.500300002980232,38.41270000298023Q24.462100002980232,39.528200002980235,21.201500002980232,39.528200002980235Q17.595600002980234,39.528200002980235,14.281100002980232,38.171800002980234Q11.141300002980232,36.886900002980234,8.659160002980233,34.55330000298023Q10.018320002980232,30.94750000298023,12.040100002980232,26.834300002980232Q14.278100002980231,22.28130000298023,16.603300002980234,18.619400002980232Q19.218100002980233,18.769400002980234,22.088600002980233,18.301900002980233Q25.22210000298023,17.791400002980232,27.23420000298023,16.312700002980232Q29.270100002980232,14.816600002980232,29.694100002980232,12.674800002980232Q29.981900002980233,11.222200002980232,29.432700002980233,9.908070002980232Q28.88210000298023,8.590290002980232,27.670500002980233,7.843500002980233Q26.252000002980232,6.968870002980232,24.486200002980233,7.2281000029802325Q22.740400002980234,7.484400002980232,21.05550000298023,8.793650002980232Q18.307800002980233,10.929400002980232,15.157700002980233,15.586700002980232Q12.048900002980233,15.120800002980232,9.473300002980233,13.551300002980232Q7.777600002980233,12.518100002980232,6.100750002980233,10.824500002980232Q8.599120002980232,7.193560002980233,12.471500002980232,5.086980002980233Q16.54350000298023,2.8717800029802323,21.200000002980232,2.8717900029802323Q24.922700002980232,2.8717900029802323,28.327400002980234,4.314380002980232Q31.61530000298023,5.707510002980232,34.15410000298023,8.246410002980232Q36.69270000298023,10.785100002980233,38.085800002980235,14.073200002980233ZM18.134500002980232,16.183100002980233Q19.84060000298023,16.162600002980234,21.688700002980234,15.862100002980233L21.688700002980234,15.862100002980233Q24.019900002980233,15.482400002980233,25.49170000298023,14.528600002980232Q26.99910000298023,13.551800002980233,27.26740000298023,12.194800002980232Q27.402000002980234,11.511200002980232,27.161500002980233,10.902100002980232Q26.917900002980232,10.285500002980232,26.370800002980232,9.947520002980232Q25.879900002980232,9.644330002980233,25.243500002980234,9.644330002980233Q23.99010000298023,9.644330002980233,22.570500002980232,10.746400002980232Q20.451700002980232,12.393000002980232,17.969400002980233,15.866800002980233L17.74000000298023,16.187800002980232L18.134500002980232,16.183100002980233ZM25.274200002980233,14.192900002980233Q23.87280000298023,15.101100002980232,21.62440000298023,15.467200002980233L21.62440000298023,15.467300002980233Q20.021400002980233,15.728000002980233,18.529100002980233,15.774500002980233Q20.842800002980233,12.595600002980232,22.816000002980232,11.062200002980232Q24.12710000298023,10.044330002980232,25.243500002980234,10.044330002980232Q25.766400002980234,10.044330002980232,26.16060000298023,10.287800002980232Q26.594700002980233,10.556000002980232,26.789400002980233,11.049000002980232Q26.98690000298023,11.549000002980232,26.875000002980233,12.117500002980233Q26.63950000298023,13.308200002980232,25.274200002980233,14.192900002980233ZM4.378070002980232,12.972400002980232Q2.4717900029802324,16.85620000298023,2.4717900029802324,21.200000002980232Q2.4717900029802324,24.384100002980233,3.5157100029802324,27.367600002980232Q4.5243400029802325,30.250100002980233,6.409140002980232,32.67410000298023L6.623940002980232,32.950300002980235L6.752940002980233,32.62500000298023Q9.796500002980233,24.950800002980234,13.971000002980233,18.164200002980234L14.121000002980232,17.92020000298023L13.840300002980232,17.86340000298023Q8.698950002980233,16.821900002980232,4.697280002980232,12.917400002980232L4.499710002980232,12.724600002980232L4.378070002980232,12.972400002980232ZM3.8932600029802322,27.23540000298023Q2.8717900029802323,24.31610000298023,2.8717900029802323,21.200000002980232Q2.8717900029802323,17.087300002980232,4.6178100029802325,13.396300002980233Q8.522610002980231,17.11220000298023,13.481900002980233,18.196600002980233Q9.472250002980232,24.761900002980234,6.511960002980232,32.14940000298023Q4.822520002980232,29.89120000298023,3.8932600029802322,27.23540000298023ZM26.54040000298023,28.789400002980233Q25.14720000298023,28.434800002980232,23.625300002980232,28.437200002980234L23.624900002980233,28.437200002980234Q20.917400002980234,28.437200002980234,18.919600002980232,29.355400002980232Q18.070300002980233,29.745300002980233,17.57860000298023,30.444700002980234Q17.08320000298023,31.149400002980233,17.065500002980233,32.003600002980235Q17.03750000298023,33.41630000298023,18.167800002980233,33.993100002980235Q19.198200002980233,34.517700002980234,20.835600002980232,33.995900002980235Q22.426700002980233,33.489000002980234,24.259300002980233,32.10150000298023Q25.667600002980233,31.033800002980232,26.669200002980233,29.07420000298023L26.783200002980234,28.85120000298023L26.54040000298023,28.789400002980233ZM19.086500002980234,29.71890000298023Q21.005000002980232,28.837200002980232,23.625300002980232,28.837200002980232L23.62560000298023,28.837200002980232Q24.96270000298023,28.835100002980234,26.194900002980233,29.117400002980233Q25.27190000298023,30.831900002980234,24.01770000298023,31.78270000298023Q22.23990000298023,33.12870000298023,20.71420000298023,33.61480000298023Q19.233300002980233,34.08670000298023,18.349300002980232,33.63660000298023Q17.442400002980232,33.17390000298023,17.46550000298023,32.01150000298023Q17.480600002980232,31.27960000298023,17.905800002980232,30.67470000298023Q18.335400002980233,30.063800002980233,19.086500002980234,29.71890000298023Z" fill-rule="evenodd" fill="#FFC82F" fill-opacity="1"/></g></svg>