<svg xmlns="http://www.w3.org/2000/svg" xmlns:xlink="http://www.w3.org/1999/xlink" fill="none" version="1.1" width="42" height="42" viewBox="0 0 42 42"><g><path d="M29.1741,40.3498Q25.2725,42,21,42Q16.7275,42,12.8259,40.3498Q9.05736,38.7559,6.15078,35.8493Q3.24418,32.9427,1.65022,29.1741Q0.0000187755,25.2726,0.0000208318,21Q0.0000187755,16.7274,1.65022,12.8259Q3.24419,9.05736,6.15078,6.15078Q9.05737,3.24418,12.8259,1.65022Q16.7275,0.0000187755,21,0.0000208318Q25.2726,0.0000228882,29.1741,1.65022Q32.9427,3.24419,35.8493,6.15078Q38.7558,9.05737,40.3498,12.8259Q42,16.7275,42,21Q42,25.2725,40.3498,29.1741Q38.7558,32.9427,35.8493,35.8493Q32.9426,38.7559,29.1741,40.3498ZM27.9225,4.61353Q24.6181,3.21588,21,3.21588Q16.3317,3.21588,12.288,5.49235Q8.3679,7.69929,5.96054,11.5042L5.87088,11.6459L5.99371,11.7601Q10.2444,15.7109,15.7094,16.2614L15.8302,16.2736L15.8976,16.1725Q19.0569,11.4362,21.2933,9.61961Q23.8363,7.5577,26.3335,8.33234Q28.8021,9.09808,29.2812,11.7279Q29.7502,14.3024,27.7006,16.4216Q25.588,18.606,21.4119,19.2897Q19.4687,19.6093,17.6329,19.6268L17.5226,19.6279L17.4639,19.7212Q15.6681,22.5759,13.5403,26.4Q10.9162,31.116,9.14881,34.0392L9.0619,34.1829L9.18743,34.2946Q11.589,36.43,14.5714,37.5867Q17.6591,38.7841,21,38.7842Q24.0929,38.7842,26.9793,37.754Q29.7688,36.7584,32.093,34.9013L32.2028,34.8135L32.1586,34.68Q31.1726,31.7033,28.8627,30.1991L28.6608,30.0676L28.5667,30.2894Q27.6618,32.4212,25.7297,33.9054Q22.4062,36.4576,19.6094,36.58Q16.775,36.704,15.3111,34.5667Q13.9803,32.6238,14.6735,30.2202Q15.3851,27.7528,17.8094,26.6213Q21.6926,24.8095,26.0234,25.6661L26.2906,25.719L26.2635,25.448Q26.0762,23.5747,25.0461,21.3181L27.9537,19.9178Q29.4963,23.3078,29.3549,26.5978L29.3492,26.7304L29.4687,26.7882Q32.9166,28.4569,34.5832,32.024L34.7212,32.3194L34.9242,32.0643Q36.7707,29.7436,37.7602,26.9617Q38.7842,24.0832,38.7842,21Q38.7842,17.382,37.3865,14.0776Q36.0367,10.8861,33.5753,8.42474Q31.114,5.96346,27.9225,4.61353ZM26.0626,25.468Q26.0522,25.3635,26.039,25.2577Q26.0221,25.1214,26.0007,24.983Q26.0387,25.2288,26.0626,25.468ZM28.051,19.6468Q28.0939,19.7384,28.1357,19.8301Q28.1943,19.959,28.2506,20.0877Q28.1543,19.8674,28.051,19.6468ZM34.7662,31.9386C34.813,31.8797,34.8595,31.8205,34.9056,31.761C35.1534,31.4413,35.3903,31.1128,35.616,30.7762C35.3483,31.1755,35.0647,31.5633,34.7662,31.9386ZM19.7963,16.2218L20.2678,16.1576Q20.5776,16.1153,20.8906,16.0639Q24.0083,15.5534,25.3733,14.1421Q26.2534,13.2321,26.0867,12.3172Q25.9629,11.6374,25.3769,11.4556Q24.5295,11.1927,23.3334,12.1625Q21.946,13.2896,20.0776,15.8381L19.7963,16.2218ZM4.36657,14.6867L4.26761,14.9608Q3.21588,17.8742,3.21588,21Q3.21588,23.8732,4.10771,26.5763Q4.9703,29.1908,6.59277,31.4284L6.77308,31.6771L6.92988,31.413Q8.50826,28.7541,10.7066,24.8032Q12.2989,21.9414,13.7346,19.5799L13.8859,19.331L13.5998,19.2767Q8.65188,18.3364,4.58846,14.8756L4.36657,14.6867ZM13.5621,19.475Q13.3823,19.7707,13.2002,20.074Q13.3259,19.8646,13.4503,19.6592Q13.5065,19.5664,13.5621,19.475ZM6.64505,31.1548C6.42317,30.8417,6.21127,30.521,6.00982,30.1933C6.20607,30.5126,6.41223,30.8251,6.62788,31.1305C6.6336,31.1386,6.63932,31.1467,6.64505,31.1548ZM19.4709,33.3139Q21.2659,33.2353,23.7894,31.2975Q24.9897,30.3754,25.6183,29.1828L25.7441,28.9441L25.4796,28.8907Q22.1115,28.2114,19.1523,29.5921Q18.0609,30.1015,17.7616,31.1394Q17.5015,32.0412,17.9524,32.6995Q18.4052,33.3605,19.4709,33.3139Z" fill-rule="evenodd" fill="#FFC82F" fill-opacity="1"/><path d="" fill="#000000" fill-opacity="1"/></g></svg>