<svg xmlns="http://www.w3.org/2000/svg" xmlns:xlink="http://www.w3.org/1999/xlink" fill="none" version="1.1" width="53.54560852050781" height="39.0811767578125" viewBox="0 0 53.54560852050781 39.0811767578125"><g><path d="M51.1003,4.22611Q51.1003,2.47686,49.755,1.23992Q48.4065,0.0000164399,46.494,0.0000163585L7.05145,0.0000163585Q5.14477,0.0000154367,3.79366,1.24154Q2.44516,2.48068,2.44516,4.22611L2.44516,19.891Q1.57158,21.0674,0.989682,22.4347Q0.00349404,24.752,0.0000164395,27.29L0.0000164395,39.0812L7.26671,39.0812L7.26671,36.8009Q7.26852,35.8633,7.93314,35.199Q8.59778,34.5347,9.53985,34.5293L43.119,34.5293Q44.0645,34.5293,44.7339,35.1944Q45.4032,35.8595,45.405,36.801L45.405,39.0769L53.5456,39.0769L53.5456,27.29Q53.5422,24.7518,52.556,22.4347Q51.9767,21.0737,51.1084,19.9018L51.1003,4.22611ZM48.7887,20.6939L48.7887,20.7193L48.8107,20.7193Q51.2203,23.5011,51.2297,27.2771L51.2297,36.7668L47.7265,36.7668L47.7253,36.708Q47.6853,34.8388,46.3453,33.5292Q45.0053,32.2197,43.1274,32.2149L9.54856,32.2149Q7.66588,32.2181,6.32353,33.5323Q4.98118,34.8466,4.94647,36.7207L4.94538,36.7797L2.32025,36.7797L2.32025,27.2899Q2.3251,23.5069,4.73943,20.7193L4.7654,20.7193L4.7654,20.6894Q5.02682,20.3897,5.31619,20.1016Q7.83032,17.5985,11.22,17.1959L42.3303,17.1959Q45.7148,17.598,48.2276,20.0955Q48.5226,20.3887,48.7887,20.6939ZM48.7887,17.5087L48.7887,4.22611Q48.7887,3.43283,48.1143,2.87165Q47.4446,2.31439,46.5026,2.31439L7.05145,2.31439Q6.10948,2.31439,5.4398,2.87164Q4.76539,3.43283,4.7654,4.22611L4.7654,17.502Q6.08674,16.4576,7.65956,15.794Q8.3719,15.4935,9.10501,15.2847L9.10501,12.0054Q9.10851,10.4617,10.2062,9.37127Q11.3039,8.28082,12.8546,8.28082L23.9443,8.28082Q25.4931,8.28257,26.5883,9.37299Q26.6848,9.46902,26.7728,9.56856Q26.8607,9.46903,26.9572,9.37299Q28.0524,8.28257,29.6013,8.28082L40.6952,8.28082Q42.2445,8.28256,43.3408,9.37275Q44.4369,10.4629,44.4405,12.0054L44.4405,15.2846Q45.1737,15.4935,45.8861,15.794Q47.4639,16.4597,48.7887,17.5087ZM42.1203,14.8576L42.1203,12.0054Q42.1166,11.42,41.6997,11.0076Q41.2829,10.5952,40.6952,10.5952L29.6012,10.5952Q29.0134,10.597,28.5978,11.0107Q28.1823,11.4245,28.1805,12.0095L28.1805,14.8087L41.0095,14.8087Q41.5702,14.8095,42.1203,14.8576ZM25.3651,14.8087L25.3651,12.0054Q25.3613,11.4213,24.9461,11.0092Q24.5308,10.597,23.9445,10.5952L12.8546,10.5952Q12.2656,10.5952,11.8485,11.0092Q11.4314,11.4232,11.4296,12.0095L11.4252,14.8576Q11.9753,14.8095,12.5362,14.8087L25.3651,14.8087Z" fill-rule="evenodd" fill="#6D6D6D" fill-opacity="1"/></g></svg>