<svg xmlns="http://www.w3.org/2000/svg" xmlns:xlink="http://www.w3.org/1999/xlink" fill="none" version="1.1" width="28.7998046875" height="42.800048828125" viewBox="0 0 28.7998046875 42.800048828125"><g><path d="M26.4717,0.0000303164Q27.4292,0.0000306517,28.1099,0.736201Q28.7999,1.48238,28.7999,2.5422L28.7999,40.2579Q28.7999,41.3177,28.1099,42.0639Q27.4292,42.8,26.4717,42.8L2.32811,42.8Q1.37057,42.8,0.68985,42.0639Q-0.000114948,41.3177,-0.000114881,40.2579L-0.000114881,2.5422Q-0.00011456,1.48239,0.68985,0.736201Q1.37055,0.000030525,2.32811,0.0000306517L26.4717,0.0000303164ZM26.826,2.18316L1.97373,2.18316L1.97373,15.9567L26.826,15.9567L26.826,2.18316ZM6.35204,5.80244Q6.75401,5.80244,7.04185,6.11374Q7.33896,6.43505,7.33896,6.89401L7.33896,11.2458Q7.33896,11.7048,7.04185,12.0261Q6.75401,12.3374,6.35204,12.3374Q5.95007,12.3374,5.66222,12.0261Q5.36512,11.7048,5.36512,11.2458L5.36512,6.89401Q5.36512,6.43505,5.66222,6.11374Q5.95006,5.80244,6.35204,5.80244ZM1.97373,40.6169L26.826,40.6169L26.826,18.1398L1.97373,18.1398L1.97373,40.6169ZM6.57604,32.6458Q6.17406,32.6458,5.88622,32.3345Q5.58911,32.0132,5.58911,31.5542L5.58911,27.2024Q5.58911,26.7435,5.88622,26.4222Q6.17406,26.1109,6.57604,26.1109Q6.97801,26.1109,7.26585,26.4222Q7.56296,26.7435,7.56296,27.2024L7.56296,31.5542Q7.56296,32.0132,7.26585,32.3345Q6.97801,32.6458,6.57604,32.6458Z" fill-rule="evenodd" fill="#6D6D6D" fill-opacity="1" style="mix-blend-mode:passthrough"/></g></svg>