<svg xmlns="http://www.w3.org/2000/svg" xmlns:xlink="http://www.w3.org/1999/xlink" fill="none" version="1.1" width="42" height="41" viewBox="0 0 42 41"><g><g><path d="M40.8947,38.8421C40.2316,38.8421,39.7895,38.4106,39.7895,37.7632L39.7895,2.1579L2.21053,2.1579L2.21053,37.7632C2.21053,38.4105,1.76842,38.8421,1.10526,38.8421C0.442106,38.8421,0,38.4105,0,37.7632L0,1.07895C0,0.431579,0.442105,0,1.10526,0L40.8947,0C41.5579,0,42,0.431579,42,1.07895L42,37.7632C42,38.4105,41.5579,38.8421,40.8947,38.8421Z" fill="#6D6D6D" fill-opacity="1" style="mix-blend-mode:passthrough"/></g><g><path d="M40.8947,38.842151599121095L1.10526,38.842151599121095C0.442105,38.842151599121095,0,38.41055159912109,0,37.763151599121095C0,37.1157515991211,0.442105,36.6842515991211,1.10526,36.6842515991211L40.8947,36.6842515991211C41.5579,36.6842515991211,42,37.1157515991211,42,37.763151599121095C42,38.41055159912109,41.5579,38.842151599121095,40.8947,38.842151599121095ZM40.8947,19.421041599121093L1.10526,19.421041599121093C0.442105,19.421041599121093,0,18.989461599121093,0,18.342091599121094C0,17.694721599121095,0.442105,17.263141599121095,1.10526,17.263141599121095L40.8947,17.263141599121095C41.5579,17.263141599121095,42,17.694721599121095,42,18.342091599121094C42,18.989461599121093,41.5579,19.421041599121093,40.8947,19.421041599121093ZM40.8947,12.947351599121093L1.10526,12.947351599121093C0.442105,12.947351599121093,0,12.515771599121093,0,11.868401599121094C0,11.221030599121093,0.442105,10.789451599121094,1.10526,10.789451599121094L40.8947,10.789451599121094C41.5579,10.789451599121094,42,11.221030599121093,42,11.868401599121094C42,12.515771599121093,41.5579,12.947351599121093,40.8947,12.947351599121093ZM14.3684,30.210551599121093C13.7053,30.210551599121093,13.2632,29.778951599121093,13.2632,29.131551599121092L13.2632,24.815751599121093C13.2632,24.16845159912109,13.7053,23.736851599121096,14.3684,23.736851599121096C15.0316,23.736851599121096,15.4737,24.16845159912109,15.4737,24.815751599121093L15.4737,29.131551599121092C15.4737,29.778951599121093,15.0316,30.210551599121093,14.3684,30.210551599121093Z" fill="#6D6D6D" fill-opacity="1" style="mix-blend-mode:passthrough"/></g><g><path d="M5.526234254608154,41.000039724731444C4.863079254608154,41.000039724731444,4.420974254608154,40.56843972473145,4.420974254608154,39.92103972473144L4.420974254608154,37.763139724731445C4.420974254608154,37.11573972473144,4.863079254608154,36.68423972473144,5.526234254608154,36.68423972473144C6.189394254608154,36.68423972473144,6.631504254608155,37.11573972473144,6.631504254608155,37.763139724731445L6.631504254608155,39.92103972473144C6.631504254608155,40.56843972473145,6.189394254608154,41.000039724731444,5.526234254608154,41.000039724731444ZM36.47357425460815,41.000039724731444C35.81047425460815,41.000039724731444,35.368374254608156,40.56843972473145,35.368374254608156,39.92103972473144L35.368374254608156,37.763139724731445C35.368374254608156,37.11573972473144,35.81047425460815,36.68423972473144,36.47357425460815,36.68423972473144C37.136774254608156,36.68423972473144,37.57887425460815,37.11573972473144,37.57887425460815,37.763139724731445L37.57887425460815,39.92103972473144C37.57887425460815,40.56843972473145,37.136774254608156,41.000039724731444,36.47357425460815,41.000039724731444ZM20.999874254608155,38.842139724731446C20.336774254608155,38.842139724731446,19.894674254608155,38.41053972473145,19.894674254608155,37.763139724731445L19.894674254608155,18.342089724731444C19.894674254608155,17.694719724731446,20.336774254608155,17.263139724731445,20.999874254608155,17.263139724731445C21.663074254608155,17.263139724731445,22.105174254608155,17.694718724731445,22.105174254608155,18.342089724731444L22.105174254608155,37.763139724731445C22.105174254608155,38.41053972473145,21.663074254608155,38.842139724731446,20.999874254608155,38.842139724731446ZM27.631474254608154,30.210539724731447C26.968374254608154,30.210539724731447,26.526274254608154,29.778939724731444,26.526274254608154,29.131539724731446L26.526274254608154,24.815779724731446C26.526274254608154,24.168409724731447,26.968374254608154,23.736829724731447,27.631474254608154,23.736829724731447C28.294674254608154,23.736829724731447,28.736774254608154,24.168409724731447,28.736774254608154,24.815779724731446L28.736774254608154,29.131539724731446C28.736774254608154,29.778939724731444,28.294674254608154,30.210539724731447,27.631474254608154,30.210539724731447Z" fill="#6D6D6D" fill-opacity="1" style="mix-blend-mode:passthrough"/></g></g></svg>