<svg xmlns="http://www.w3.org/2000/svg" xmlns:xlink="http://www.w3.org/1999/xlink" fill="none" version="1.1" width="35" height="40" viewBox="0 0 35 40"><g><path d="M32.9412,0C34.0782,0,35,0.895431,35,2L35,38C35.0003,39.0466,34.17,39.9165,33.0956,39.995L32.9412,40L2.05882,40C0.921767,40,0,39.1046,0,38L0,2C0,0.89543,0.921767,0,2.05882,0L32.9412,0ZM31.9118,31L3.08824,31C2.51971,31,2.05882,31.4477,2.05882,32L2.05882,37C2.05882,37.5523,2.51971,38,3.08824,38L31.9118,38C32.4803,38,32.9412,37.5523,32.9412,37L32.9412,32C32.9412,31.4477,32.4803,31,31.9118,31ZM10.2941,34C10.8626,34,11.3235,34.4477,11.3235,35C11.3235,35.5523,10.8626,36,10.2941,36L5.14706,36C4.57853,36,4.11765,35.5523,4.11765,35C4.11765,34.4477,4.57853,34,5.14706,34L10.2941,34ZM15.4412,34C16.0097,34,16.4706,34.4477,16.4706,35C16.4706,35.5523,16.0097,36,15.4412,36L14.4118,36C13.8432,36,13.3824,35.5523,13.3824,35C13.3824,34.4477,13.8432,34,14.4118,34L15.4412,34ZM32.9412,2L2.05882,2L2.05882,29L32.9412,29L32.9412,2ZM17.5,5C18.0685,5,18.5294,5.44771,18.5294,6L18.5294,7.055C22.8313,7.52293,26.2269,10.8211,26.7091,15L27.7941,15C28.3626,15,28.8235,15.4477,28.8235,16C28.8235,16.5523,28.3626,17,27.7941,17L26.7081,17C26.226,21.1782,22.8315,24.4762,18.5304,24.945L18.5294,26C18.5294,26.5523,18.0685,27,17.5,27C16.9315,27,16.4706,26.5523,16.4706,26L16.4706,24.945C12.1695,24.4767,8.77451,21.1792,8.29191,17.001L7.20588,17C6.63735,17,6.17647,16.5523,6.17647,16C6.17647,15.4477,6.63735,15,7.20588,15L8.29191,15C8.77406,10.8214,12.1691,7.52337,16.4706,7.055L16.4706,6C16.4706,5.44771,16.9315,5,17.5,5ZM18.5304,9.071L18.5294,10C18.5294,10.5523,18.0685,11,17.5,11C16.9315,11,16.4706,10.5523,16.4706,10L16.4706,9.07C13.308,9.5144,10.8237,11.9278,10.3662,15L11.3235,15C11.8921,15,12.3529,15.4477,12.3529,16C12.3529,16.5523,11.8921,17,11.3235,17L10.3672,17.001C10.8254,20.0721,13.309,22.4844,16.4706,22.929L16.4706,22C16.4706,21.4477,16.9315,21,17.5,21C18.0685,21,18.5294,21.4477,18.5294,22L18.5304,22.929C21.6916,22.484,24.1747,20.0718,24.6328,17.001L23.6765,17C23.1079,17,22.6471,16.5523,22.6471,16C22.6471,15.4477,23.1079,15,23.6765,15L24.6338,15C24.1759,11.9281,21.6917,9.51529,18.5294,9.071L18.5304,9.071Z" fill="#6D6D6D" fill-opacity="1" style="mix-blend-mode:passthrough"/></g></svg>