<svg xmlns="http://www.w3.org/2000/svg" xmlns:xlink="http://www.w3.org/1999/xlink" fill="none" version="1.1" width="37.324546813964844" height="50.867401123046875" viewBox="0 0 37.324546813964844 50.867401123046875"><g><path d="M37.3245,18.5806Q37.3245,14.8002,35.8581,11.3483Q34.4416,8.01392,31.8585,5.44213Q29.2754,2.87033,25.9264,1.46001Q22.4593,-0.0000191357,18.6623,-0.0000177052Q14.8652,-0.0000180101,11.3982,1.46001Q8.04912,2.87034,5.46603,5.44213Q2.88295,8.01392,1.46642,11.3483Q-0.0000195966,14.8002,-0.000017783,18.5806Q-0.0000180892,24.9341,3.8966,29.9452Q7.72703,34.8711,13.7276,36.5049L13.9902,36.5764L12.5505,48.6626L6.63054,48.6626Q6.17223,48.6626,5.84816,48.9853Q5.52408,49.3079,5.52408,49.7642Q5.52408,50.2205,5.84816,50.5432Q6.17223,50.8659,6.63054,50.8659L13.4737,50.8659L13.481,50.8662Q13.5071,50.8674,13.5333,50.8674Q13.5593,50.8674,13.5853,50.8662L13.5926,50.8659L23.7319,50.8659L23.7392,50.8662Q23.7652,50.8674,23.7912,50.8674Q23.8174,50.8674,23.8435,50.8662L23.8508,50.8659L30.6938,50.8659Q31.1521,50.8659,31.4762,50.5432Q31.8003,50.2205,31.8003,49.7642Q31.8003,49.3079,31.4762,48.9853Q31.1521,48.6626,30.6938,48.6626L24.774,48.6626L23.3343,36.5764L23.5969,36.5049Q29.5975,34.8711,33.4279,29.9452Q37.3246,24.9341,37.3245,18.5806ZM35.1116,18.5806Q35.1116,21.7045,33.9567,24.6091Q32.7026,27.7628,30.2937,30.1612Q27.8847,32.5596,24.7172,33.8081Q21.7999,34.9581,18.6623,34.958Q15.5246,34.9581,12.6073,33.8081Q9.4397,32.5596,7.03081,30.1612Q4.62185,27.7628,3.36784,24.6091Q2.2129,21.7045,2.2129,18.5806Q2.2129,15.4567,3.36784,12.5522Q4.62185,9.39848,7.03081,7.00005Q9.43976,4.60163,12.6073,3.35311Q15.5246,2.20322,18.6623,2.20322Q21.7999,2.20322,24.7172,3.35311Q27.8847,4.60162,30.2937,7.00005Q32.7026,9.39841,33.9567,12.5522Q35.1116,15.4567,35.1116,18.5806ZM15.1171,22.0358Q12.8924,22.9748,10.1641,24.0087L9.99282,24.061Q9.57651,24.1493,9.1512,24.1508Q7.95264,24.1508,7.04375,23.4862Q6.15814,22.8386,5.91284,21.8235L5.83655,21.3473L5.49953,19.1888Q5.31947,18.0545,5.73837,17.1361Q6.34994,15.7683,7.98075,15.1352Q9.07659,14.7098,10.4153,14.6685L10.5062,14.6665L12.1444,14.6898Q12.861,14.7209,13.7967,14.8177Q14.8594,14.9569,15.8722,15.1938L16.0585,15.2374L16.2229,15.1401Q16.8379,14.7762,17.5161,14.6309L17.7927,14.5717L17.8717,14.3011Q18.9161,10.7232,19.3904,9.44075L19.4363,9.33599Q20.0993,8.02625,21.3657,7.52341Q22.6065,7.03075,23.7597,7.58436L23.8325,7.62305L24.3177,7.90588L26.0697,8.9193Q27.0695,9.49242,27.5234,10.4008Q28.2847,11.8887,27.497,13.8375Q27.0754,14.8804,26.459,15.6274L25.4004,16.8919Q24.9298,17.4205,24.2604,18.0887Q23.8024,18.5213,23.2333,18.9963L22.6986,19.4425L23.3121,19.7733Q25.2684,20.8279,27.282,21.9953L27.4361,22.0983Q28.5791,23.015,28.8096,24.3499Q29.0353,25.657,28.2589,26.6638L27.9455,27.0113Q26.9545,28.0915,26.4578,28.6449Q25.6962,29.4923,24.7081,29.748Q24.2885,29.8615,23.8436,29.8615Q22.5811,29.8615,21.2815,28.9769Q20.4877,28.4365,19.8712,27.7234L19.7788,27.6123L18.768,26.332Q18.3241,25.7327,17.8269,24.9678Q17.2152,23.981,16.7601,23.0179L16.6421,22.7703L16.4965,22.6974Q16.012,22.455,15.6111,22.1123L15.3879,21.9215L15.1171,22.0358ZM20.9603,10.0018Q21.2848,9.41599,21.8213,9.13487Q22.4326,8.81461,22.9883,9.05024L23.016,9.062L23.4788,9.33168L25.2488,10.3549Q25.8087,10.6769,26.043,11.1467Q26.4543,11.9512,25.9734,13.1785Q25.6625,13.9719,25.1851,14.5701L25.1828,14.5729L24.1435,15.8144L24.1387,15.8198Q23.7324,16.2761,23.1081,16.9009L23.1019,16.9071Q23.0772,16.9304,23.0405,16.9627Q23.019,16.9816,23.0106,16.9893L22.5547,17.414L22.2662,16.8627Q21.4905,15.3806,19.9142,14.8034L19.4971,14.6506L19.6232,14.2262Q20.194,12.3067,20.9173,10.1062L20.9249,10.0829L20.9388,10.0407L20.9603,10.0018ZM21.0656,18.4658L21.0767,18.629Q21.0771,18.6334,21.0818,18.6679Q21.0963,18.7746,21.0963,18.8454Q21.0963,19.9453,20.3133,20.7249Q19.5302,21.5045,18.4255,21.5045Q17.3208,21.5045,16.5377,20.7249Q15.7547,19.9453,15.7547,18.8454Q15.7547,17.7455,16.5377,16.9659Q17.3208,16.1863,18.4255,16.1863Q19.3751,16.1863,20.1107,16.785Q20.8343,17.3741,21.0326,18.279L21.0636,18.4362L21.0656,18.4658ZM14.0217,20.7029Q12.0147,21.5388,9.64192,22.4404L9.59865,22.4568L9.55298,22.4646Q8.89468,22.577,8.33549,22.3325Q7.70818,22.0582,7.54109,21.4937L7.53193,21.4627L7.47753,21.1048L7.13651,18.9221Q7.03567,18.2878,7.25241,17.8121Q7.86983,16.4322,10.4716,16.3195L10.4852,16.3189L12.0961,16.3418L12.1029,16.3421Q12.7355,16.3689,13.596,16.4581L13.6024,16.4587L13.6087,16.4596Q13.7131,16.4732,13.9098,16.5057Q14.0155,16.5232,14.0676,16.5311L14.6676,16.6233L14.4324,17.1806Q14.0956,17.9788,14.0962,18.8446Q14.0962,19.5034,14.2914,20.1269L14.4199,20.5371L14.0217,20.7029ZM26.4651,23.4434Q26.9704,23.8815,27.1335,24.4617Q27.3185,25.1198,26.9766,25.6118L26.9584,25.638L26.7219,25.8958L26.5999,26.029Q25.669,27.0448,25.2212,27.544Q24.7945,28.0187,24.2818,28.1528Q23.3794,28.3916,22.2686,27.6527Q21.577,27.1926,21.1035,26.6184L20.0877,25.3345L20.083,25.3281Q19.6917,24.7981,19.2322,24.0927L19.2285,24.0869Q19.1832,24.0139,19.1078,23.8813Q19.0603,23.7978,19.0366,23.758L18.7023,23.195L19.3443,23.0563Q20.9488,22.7096,21.9261,21.3708L22.1703,21.0363L22.5356,21.2332Q24.39,22.2333,26.3918,23.3912L26.4309,23.4138L26.4651,23.4434ZM18.6623,37.1613Q19.7599,37.1613,20.8429,37.0358L21.1562,36.9995L22.5456,48.6626L14.7789,48.6626L16.1682,36.9995L16.4816,37.0358Q17.5645,37.1613,18.6623,37.1613Z" fill-rule="evenodd" fill="#6D6D6D" fill-opacity="1"/></g></svg>