<svg xmlns="http://www.w3.org/2000/svg" xmlns:xlink="http://www.w3.org/1999/xlink" fill="none" version="1.1" width="40.7998046875" height="48.800048828125" viewBox="0 0 40.7998046875 48.800048828125"><g><path d="M25.9203,48.3735Q25.6112,48.7399,25.1173,48.7915L25.1148,48.7917L25.1049,48.7926Q25.0199,48.8,24.9849,48.8L10.3574,48.8Q9.8611,48.8,9.51098,48.4657Q9.16482,48.1352,9.16482,47.6691Q9.16482,47.6341,9.17352,47.5508L10.1874,38.3755L10.0443,38.2938Q6.8916,36.4939,4.97149,33.5015Q3.05309,30.5116,2.80109,27.0108L2.78833,26.8335L2.61673,26.7867Q1.4724,26.4748,0.738646,25.5708Q-0.00718383,24.649,-0.0000292435,23.4916Q0.00348473,22.0763,1.04939,21.0743Q2.10036,20.0674,3.58683,20.0674L4.14787,20.0674L2.54587,11.0264L2.54527,11.0235Q2.1722,9.17592,2.57668,7.35051Q2.96758,5.58634,4.02723,4.08421Q5.08783,2.58075,6.65377,1.57304Q8.27618,0.528996,10.2121,0.169118Q11.1249,0.000024423,12.0575,0.000024423L23.2897,0.000024423Q25.2623,0.000024423,27.0636,0.7295Q28.8026,1.43375,30.1437,2.71738Q31.4836,3.9999,32.2182,5.66167Q32.9781,7.38079,32.9781,9.26281Q32.9781,9.63323,32.9487,9.99862L32.927,10.2696L35.2815,10.2696Q35.7778,10.2696,36.1279,10.604Q36.474,10.9345,36.474,11.4005Q36.474,11.8675,36.1295,12.1973Q35.7805,12.5314,35.2815,12.5314L32.5308,12.5314L31.1943,20.0674L31.7554,20.0674Q33.2428,20.0674,34.2948,21.0744Q35.3423,22.0769,35.3423,23.4901Q35.3423,24.6599,34.6039,25.5656Q33.8678,26.4725,32.7259,26.7818L32.5537,26.8285L32.5411,27.0063Q32.293,30.5048,30.3733,33.4966Q28.4538,36.4879,25.3028,38.2891L25.1599,38.3708L26.1739,47.5474Q26.226,48.011,25.9203,48.3735ZM28.9908,4.90048Q27.1082,2.63653,24.1067,2.3114Q23.7009,2.26659,23.2848,2.26659L12.0576,2.26177Q9.03584,2.26178,6.89779,4.30725Q4.75422,6.358,4.75422,9.26281Q4.75422,9.92921,4.88865,10.6058L4.89328,10.6369L6.55027,19.9904L28.7869,19.9904L30.1082,12.5362L15.0706,12.5362Q14.5743,12.5362,14.2242,12.2019Q13.878,11.8714,13.878,11.4053Q13.878,10.9409,14.2227,10.6102Q14.5726,10.2744,15.0706,10.2745L30.5098,10.2745L30.536,10.053Q30.8769,7.16868,28.9908,4.90048ZM38.9355,10.4579Q39.053,10.388,39.1417,10.355Q39.2413,10.3158,39.3753,10.2888Q39.4879,10.2648,39.6074,10.2648Q39.7268,10.2648,39.8368,10.2882Q39.9696,10.3165,40.073,10.355Q40.1775,10.3962,40.272,10.4565L40.2751,10.4584L40.2781,10.4603Q40.3597,10.5091,40.4515,10.5963Q40.5451,10.6932,40.6024,10.7721Q40.674,10.8824,40.7097,10.9652Q40.7582,11.0779,40.7806,11.18Q40.7999,11.2631,40.7999,11.3957Q40.7999,11.4963,40.7797,11.6154Q40.7509,11.7372,40.7126,11.8197L40.711,11.823L40.7096,11.8263Q40.6682,11.9226,40.6024,12.0242Q40.5451,12.103,40.4516,12.1997Q40.378,12.2695,40.2735,12.3387Q40.1567,12.4082,40.0686,12.443Q39.9735,12.4804,39.8394,12.5074L39.8377,12.5078L39.8355,12.5083L39.8339,12.5086Q39.7328,12.5314,39.6124,12.5314Q39.493,12.5314,39.383,12.508Q39.2502,12.4797,39.1468,12.4412Q39.0465,12.4017,38.9366,12.3359Q38.8535,12.2862,38.76,12.1967Q38.6858,12.1257,38.6124,12.0242Q38.5407,11.9138,38.5071,11.8309Q38.4562,11.7126,38.4417,11.6245L38.4404,11.6164L38.4385,11.6085Q38.4148,11.5066,38.4148,11.3957Q38.4148,11.1812,38.5061,10.9628Q38.5492,10.8626,38.6113,10.7735Q38.7401,10.5856,38.9355,10.4579ZM9.7497,12.0242Q9.8231,12.1257,9.89725,12.1967Q9.99084,12.2862,10.0739,12.336L10.077,12.3378L10.08,12.3397Q10.1745,12.4,10.279,12.4412Q10.3824,12.4797,10.5153,12.508Q10.6252,12.5314,10.7447,12.5314Q10.8668,12.5314,10.9618,12.5061L10.9663,12.5049L10.9692,12.5042L10.9767,12.5026Q11.1108,12.4756,11.2103,12.4364Q11.2988,12.4035,11.4158,12.3339Q11.5226,12.2632,11.5971,12.1919Q11.6903,12.1027,11.7416,12.0241Q11.8095,11.92,11.8528,11.8196Q12.1536,11.135,11.6004,10.6027Q11.4988,10.5127,11.4158,10.4575Q11.3083,10.3936,11.2103,10.355Q11.1084,10.317,10.9779,10.289Q10.7428,10.2471,10.5126,10.2888Q10.3786,10.3158,10.2835,10.3532Q10.1952,10.3881,10.0781,10.4578Q9.78188,10.6523,9.64294,10.964Q9.60499,11.0583,9.57677,11.1787Q9.53426,11.3977,9.57646,11.6115Q9.60415,11.7373,9.64435,11.8309Q9.67801,11.9138,9.7497,12.0242ZM32.9572,23.4901Q32.9572,23.0074,32.6006,22.6661Q32.2486,22.3292,31.7554,22.3292L3.58219,22.3292L3.57754,22.3293Q3.08294,22.3475,2.74517,22.6979Q2.40139,23.0545,2.42559,23.541Q2.4449,23.9939,2.7806,24.3152Q3.11218,24.6326,3.57703,24.6508L3.58188,24.6509L31.7554,24.6509Q32.2518,24.6509,32.6028,24.3137Q32.9572,23.9733,32.9572,23.4901ZM30.134,27.1888L30.1618,26.9127L5.18016,26.9127L5.20821,27.1889Q5.65931,31.6321,9.02511,34.7144Q12.3877,37.7938,17.0348,38.0257L17.0412,38.026L17.1166,38.026Q17.4135,38.0404,17.6711,38.0404Q17.9134,38.0404,18.2252,38.026L18.301,38.026L18.3072,38.0257Q22.9545,37.7938,26.319,34.7126Q29.6868,31.6285,30.134,27.1888ZM15.4095,40.1385L15.4175,40.1385L15.4768,40.1456L15.4813,40.1463Q15.6398,40.1709,15.9389,40.2053L16.0035,40.2128Q16.0631,40.2206,16.1653,40.23Q16.2403,40.2369,16.2742,40.241L16.3143,40.2453L16.3168,40.2455L16.4885,40.2593L16.9962,40.2887L17.006,40.2901Q17.0243,40.2926,17.0776,40.2926L17.1167,40.2926L17.1205,40.2927Q17.4284,40.3022,17.6761,40.3022Q18.0176,40.3022,18.2283,40.2928L18.2339,40.2926L18.269,40.2926L18.3658,40.2882L18.8588,40.2596L18.8614,40.2594L19.029,40.2457L19.0314,40.2454L19.074,40.2409L19.3602,40.2116Q19.5133,40.1987,19.8302,40.1553L19.8654,40.1504L19.8981,40.146L19.9643,40.1362Q21.2962,39.945,22.5814,39.5159L22.8765,39.4173L23.6605,46.5383L11.6817,46.5383L12.4657,39.4173L12.7608,39.5159Q14.0447,39.9446,15.3769,40.1354L15.4095,40.1385Z" fill-rule="evenodd" fill="#6D6D6D" fill-opacity="1" style="mix-blend-mode:passthrough"/></g></svg>