<svg xmlns="http://www.w3.org/2000/svg" xmlns:xlink="http://www.w3.org/1999/xlink" fill="none" version="1.1" width="36" height="40" viewBox="0 0 36 40"><g><g><path d="M31,0L5.00001,0C2.23859,0,0.00000100611,2.28005,0.00000100611,5.0926L0.00000100611,8.33321Q0.00000100611,8.33326,0.00000100611,8.33331Q0.00000100611,8.33335,0.00000100611,8.3334L0.00000100611,34.9074C0.00000100611,37.72,2.23859,40,5.00001,40L31,40C33.7614,40,36,37.72,36,34.9074L36,5.0926C36,2.28005,33.7615,0,31,0ZM5.00001,1.85186L31,1.85186C32.7573,1.85186,34.1818,3.30278,34.1818,5.0926L34.1818,7.40742L1.81818,7.40742L1.81818,5.0926C1.81818,3.30278,3.24273,1.85186,5.00001,1.85186ZM31,38.1482L5.00001,38.1482C3.24273,38.1482,1.81818,36.6973,1.81818,34.9074L1.81818,9.25928L34.1818,9.25928L34.1818,34.9074C34.1818,36.6973,32.7573,38.1482,31,38.1482Z" fill="#6D6D6D" fill-opacity="1" style="mix-blend-mode:passthrough"/></g><g><path d="M18.044369220733643,11.517041206359863C11.427539220733642,11.517041206359863,6.044369220733643,16.999901206359862,6.044369220733643,23.739241206359864C6.044369220733643,30.478641206359864,11.427539220733642,35.96154120635987,18.044369220733643,35.96154120635987C24.661269220733644,35.96154120635987,30.044369220733643,30.478641206359864,30.044369220733643,23.739241206359864C30.044369220733643,16.999901206359862,24.661169220733644,11.517041206359863,18.044369220733643,11.517041206359863ZM18.044369220733643,13.368901206359864C22.971069220733643,13.368901206359864,27.091269220733643,16.951431206359864,28.02676922073364,21.693041206359865C27.951669220733642,21.74834120635986,27.883569220733644,21.815941206359863,27.825869220733644,21.896141206359864C27.819769220733644,21.904741206359866,27.20176922073364,22.758041206359863,26.154369220733642,23.621341206359865C25.217869220733643,24.393241206359864,23.749769220733643,25.313341206359866,22.074769220733643,25.313341206359866C20.438669220733644,25.313341206359866,19.272769220733643,24.437741206359863,18.038669220733645,23.510741206359864C16.73376922073364,22.530541206359864,15.384359220733643,21.517041206359863,13.468649220733642,21.517041206359863C11.109919220733643,21.517041206359863,9.086839220733642,23.099641206359863,7.878699220733642,24.317941206359862C7.868309220733643,24.12634120635986,7.8625492207336425,23.933541206359862,7.8625492207336425,23.739341206359864C7.8625492207336425,18.021031206359865,12.430099220733641,13.368901206359864,18.044369220733643,13.368901206359864ZM18.044369220733643,34.10964120635987C13.418769220733642,34.10964120635987,9.504229220733642,30.951441206359863,8.268829220733643,26.641141206359862C8.774799220733643,25.993941206359864,10.981039220733642,23.368841206359864,13.468649220733642,23.368841206359864C14.786449220733642,23.368841206359864,15.793429220733643,24.125241206359863,16.959469220733645,25.001041206359865C18.30996922073364,26.015441206359863,19.840669220733645,27.165141206359863,22.074769220733643,27.165141206359863C24.795769220733643,27.165141206359863,26.986269220733643,25.460841206359863,28.214569220733644,24.22844120635986C27.962869220733644,29.72044120635986,23.49756922073364,34.10964120635987,18.044369220733643,34.10964120635987Z" fill="#6D6D6D" fill-opacity="1" style="mix-blend-mode:passthrough"/></g><g><path d="M6.680816342010498,6.146689120559692C7.432736342010498,6.146689120559692,8.044456342010498,5.523649120559693,8.044456342010498,4.757799120559692C8.044456342010498,3.9919521205596924,7.432736342010498,3.3689091205596924,6.680816342010498,3.3689091205596924C5.928889342010498,3.3689091205596924,5.317176342010498,3.9919521205596924,5.317176342010498,4.757799120559692C5.317176342010498,5.523649120559693,5.928891342010498,6.146689120559692,6.680816342010498,6.146689120559692Z" fill="#6D6D6D" fill-opacity="1" style="mix-blend-mode:passthrough"/></g><g><path d="M11.226327110900879,6.146689120559692C11.97824711090088,6.146689120559692,12.58995711090088,5.523649120559693,12.58995711090088,4.757799120559692C12.58995711090088,3.9919521205596924,11.978207110900879,3.3689091205596924,11.226327110900879,3.3689091205596924C10.474446110900878,3.3689091205596924,9.862687110900879,3.9919521205596924,9.862687110900879,4.757799120559692C9.862687110900879,5.523649120559693,10.474400110900879,6.146689120559692,11.226327110900879,6.146689120559692Z" fill="#6D6D6D" fill-opacity="1" style="mix-blend-mode:passthrough"/></g></g></svg>