<svg xmlns="http://www.w3.org/2000/svg" xmlns:xlink="http://www.w3.org/1999/xlink" fill="none" version="1.1" width="85.96223449707031" height="36.84609603881836" viewBox="0 0 85.96223449707031 36.84609603881836"><defs><clipPath id="master_svg0_420_2882"><rect x="0" y="0" width="85.96223449707031" height="36.84609603881836" rx="0"/></clipPath><clipPath id="master_svg1_420_2883"><rect x="11" y="8" width="22" height="22" rx="0"/></clipPath></defs><g clip-path="url(#master_svg0_420_2882)"><g><path d="M18.423,0L67.5512,0C77.6839,0,85.9742,8.29037,85.9742,18.423C85.9742,28.5557,77.6839,36.8461,67.5512,36.8461L18.423,36.8461C8.29037,36.8461,0,28.5557,0,18.423C0,8.29037,8.29037,0,18.423,0Z" fill="#FFC82F" fill-opacity="1"/></g><g clip-path="url(#master_svg1_420_2883)"><g><path d="M26.713481188964842,10.2000732421875L17.277681188964845,10.2000732421875C16.748571188964846,10.1999339161875,16.260401188964842,10.4847922421875,16.000211188964844,10.9455062421875L12.816813188964844,16.583743242187502C12.510608188964843,17.1260632421875,12.580293588964844,17.8026232421875,12.990612188964844,18.2711432421875L20.887511188964844,27.2911732421875C21.47091118896484,27.9574732421875,22.507331188964844,27.9586732421875,23.092281188964844,27.2936732421875L31.006381188964845,18.2993732421875C31.418581188964843,17.8311632421875,31.489381188964845,17.1535132421875,31.183181188964845,16.6101432421875L27.991281188964845,10.9466062421875C27.731381188964846,10.4854012421875,27.242981188964844,10.2000734061005,26.713481188964842,10.2000732421875ZM17.277681188964845,11.6667432421875L26.713481188964842,11.6667432421875L29.905281188964842,17.330273242187502L21.991181188964845,26.3249732421875L14.093911188964844,17.3049732421875L17.277681188964845,11.6667432421875Z" fill="#FFFFFF" fill-opacity="1"/></g><g><path d="M26.033291398925783,15.3330078125L26.033291398925783,16.066340812500002C26.033291398925783,16.4713478125,25.704961398925782,16.7996778125,25.29995139892578,16.7996778125L18.699954398925783,16.7996778125C18.29494539892578,16.7996778125,17.96662205457678,16.4713478125,17.96662139892578,16.066340812500002L17.96662139892578,15.3330078125L26.033291398925783,15.3330078125Z" fill="#FFFFFF" fill-opacity="1"/></g></g><g><path d="M47.66,15.42L47.66,16.46L52.620000000000005,16.46L52.620000000000005,17.8L41.84,17.8L41.84,16.46L46.019999999999996,16.46L46.019999999999996,15.42L42.54,15.42L42.54,14.1L46.019999999999996,14.1L46.019999999999996,13.04L42.34,13.04L42.34,11.68L46.019999999999996,11.68L46.019999999999996,10.04L47.66,10.1L47.66,11.68L51.92,11.68L51.92,13.04L47.66,13.04L47.66,14.1L51.46,14.1L51.46,15.42L47.66,15.42ZM39.36,20.060000000000002L39.9,19.560000000000002Q40.4,20.08,41.08,20.95Q41.76,21.82,42.14,22.46L40.94,23.64Q40.3,22.52,39.36,21.32L39.36,28.04L37.72,28.04L37.72,21.52Q36.86,23.32,35.54,25.06L34.32,23.8Q36.52,21.2,37.52,18.259999999999998L35.1,18.259999999999998L35.1,16.64L37.72,16.64L37.72,10.120000000000001L39.36,10.2L39.36,16.64L41.4,16.64L41.4,18.259999999999998L39.36,18.259999999999998L39.36,20.060000000000002ZM36.08,15.92Q35.88,15.08,35.51,13.87Q35.14,12.66,34.86,12L36.18,11.5Q36.46,12.16,36.86,13.4Q37.26,14.64,37.44,15.44L36.08,15.92ZM42.14,11.92Q41.26,14.8,40.78,15.9L39.519999999999996,15.38Q39.86,14.54,40.230000000000004,13.41Q40.6,12.280000000000001,40.78,11.52L42.14,11.92ZM42.5,27.88L42.5,18.880000000000003L51.16,18.880000000000003L51.16,25.94Q51.16,26.7,50.95,27.09Q50.739999999999995,27.48,50.28,27.66Q49.82,27.84,48.94,27.9L47.92,27.98L47.42,26.56L48.5,26.48Q48.96,26.44,49.17,26.36Q49.38,26.28,49.45,26.11Q49.519999999999996,25.94,49.519999999999996,25.58L49.519999999999996,25.04L44.1,25.04L44.1,27.88L42.5,27.88ZM49.519999999999996,21.3L49.519999999999996,20.28L44.1,20.28L44.1,21.3L49.519999999999996,21.3ZM44.1,22.64L44.1,23.68L49.519999999999996,23.68L49.519999999999996,22.64L44.1,22.64ZM62.86,18.759999999999998L59.78,18.759999999999998L59.78,17.119999999999997L64.98,17.119999999999997L64.98,14.5L62.480000000000004,14.5Q62.019999999999996,15.74,61.58,16.68L59.9,15.98Q61.3,13.42,61.82,10.66L63.5,11Q63.28,12,63,12.879999999999999L64.98,12.879999999999999L64.98,9.9L66.64,9.98L66.64,12.879999999999999L70.86,12.879999999999999L70.86,14.5L66.64,14.5L66.64,17.119999999999997L71.64,17.119999999999997L71.64,18.759999999999998L67.9,18.759999999999998L67.9,22.1Q67.9,22.64,68.03999999999999,22.82Q68.18,23,68.64,23.02L69.36,23.02Q69.82,23,69.97999999999999,22.83Q70.14,22.66,70.24000000000001,22.08Q70.34,21.32,70.34,20.68L71.92,21.2Q71.92,21.74,71.78,22.68Q71.66,23.48,71.46000000000001,23.88Q71.25999999999999,24.28,70.84,24.46Q70.42,24.64,69.6,24.66L68.08,24.66Q67.4,24.64,67.00999999999999,24.45Q66.62,24.26,66.45,23.8Q66.28,23.34,66.28,22.5L66.28,18.759999999999998L64.53999999999999,18.759999999999998L64.53999999999999,18.86Q64.53999999999999,20.32,64.27,21.3Q64,22.28,63.269999999999996,23.17Q62.54,24.06,61.1,25.1L59.980000000000004,23.7Q61.260000000000005,22.88,61.85,22.27Q62.44,21.66,62.65,20.91Q62.86,20.16,62.86,18.84L62.86,18.759999999999998ZM57.980000000000004,15.12Q57.54,14.34,56.760000000000005,13.23Q55.980000000000004,12.120000000000001,55.379999999999995,11.48L56.7,10.440000000000001Q57.28,11.059999999999999,58.05,12.059999999999999Q58.82,13.06,59.36,13.88L57.980000000000004,15.12ZM66.38,25.8Q69.02000000000001,25.8,72.44,25.66L72.06,27.32Q68.52000000000001,27.46,65.72,27.46L64.03999999999999,27.44Q62.32,27.4,61.3,27.23Q60.28,27.06,59.46,26.59Q58.64,26.12,57.82,25.16Q56.519999999999996,26.7,55.480000000000004,27.7L54.28,26.2L56.980000000000004,23.52L56.980000000000004,18.259999999999998L54.879999999999995,18.259999999999998L54.879999999999995,16.52L58.68,16.52L58.68,23.58Q59.42,24.46,60.14,24.92Q60.86,25.38,61.78,25.57Q62.7,25.76,64.14,25.78Q64.88,25.8,66.38,25.8Z" fill="#FFFFFF" fill-opacity="1"/></g></g></svg>