<svg xmlns="http://www.w3.org/2000/svg" xmlns:xlink="http://www.w3.org/1999/xlink" fill="none" version="1.1" width="54.43163299560547" height="48.21717834472656" viewBox="0 0 54.43163299560547 48.21717834472656"><g><path d="M53.0912,30.7132Q54.32,29.4895,54.4316,27.7739L54.4316,4.18477Q54.4316,2.40179,53.2255,1.20089Q52.0194,0.0000366541,50.2285,0.0000367213L4.20311,0.0000366765Q2.41225,0.0000358475,1.20612,1.20089Q-0.00000927129,2.40175,-0.00000920378,4.18477L-0.00000924878,27.787Q-0.0000086412,29.57,1.20612,30.7709Q2.41222,31.9717,4.20311,31.9717L50.0751,31.9717Q51.8274,31.9717,53.0912,30.7132ZM52.1836,17.7786L2.24799,17.7786L2.24799,4.18477Q2.24799,3.32361,2.79308,2.78091Q3.33817,2.23821,4.20311,2.23821L50.2296,2.23821Q51.0938,2.23821,51.6387,2.78099Q52.1836,3.32375,52.1836,4.18477L52.1836,17.7786ZM48.1271,6.27804Q47.8253,5.97754,47.3044,5.97754L35.4515,5.97754Q34.9306,5.97754,34.6288,6.27804Q34.327,6.57854,34.327,7.09715Q34.327,7.615,34.6287,7.91528Q34.9306,8.21571,35.4515,8.21571L47.3044,8.21571Q47.7454,8.21571,48.0796,7.90535Q48.429,7.58095,48.429,7.09716Q48.429,6.57852,48.1271,6.27804ZM2.24799,20.0179L52.1836,20.0179L52.1836,27.787Q52.1836,28.6481,51.6385,29.1908Q51.0934,29.7335,50.2285,29.7335L4.20311,29.7335Q3.33816,29.7335,2.79308,29.1908Q2.24799,28.6481,2.24799,27.787L2.24799,20.0179ZM39.5767,42.0256L39.6144,42.0756Q40.1335,42.6002,40.1738,43.0385Q40.5722,44.378,38.8576,46.4346Q38.6205,46.755,38.6913,47.2504Q38.7599,47.7302,39.0598,47.972Q39.559,48.2167,39.7619,48.2172Q40.3443,48.2168,40.8301,47.7481Q43.0597,44.6235,42.446,42.3254Q42.2033,41.7324,41.5837,40.828Q41.5098,40.7201,41.4621,40.6496Q40.8854,40.2393,40.8854,39.7409Q40.8854,38.4534,41.9834,37.7182Q42.3,37.4763,42.3711,36.9815Q42.4431,36.4805,42.2001,36.1576Q41.9575,35.8356,41.4539,35.7639Q40.9573,35.6932,40.6366,35.9269L40.574,35.9724L40.501,35.9982Q40.0777,36.1475,39.4706,37.0418Q38.6374,38.2692,38.6374,39.7409Q38.6374,40.7814,39.5767,42.0256ZM14.0477,36.9816Q13.9768,37.4761,13.6602,37.7182Q12.5622,38.4533,12.5622,39.7409Q12.5622,40.2392,13.1379,40.6496Q13.1839,40.7173,13.254,40.8196Q13.8773,41.7283,14.1218,42.3255Q14.737,44.6237,12.5057,47.7483Q12.0208,48.2172,11.4376,48.2172Q11.2363,48.2172,10.7356,47.972Q10.4362,47.7301,10.3674,47.2503Q10.2964,46.7549,10.5332,46.4347Q12.2504,44.3779,11.8487,43.0358Q11.8153,42.7299,11.5155,42.3857Q11.3884,42.2397,11.3487,42.1636L11.3285,42.125L11.2563,42.0295Q10.3142,40.7839,10.3142,39.7409Q10.3142,38.2693,11.1473,37.0417Q11.7542,36.1475,12.177,35.9981L12.2497,35.9724L12.312,35.9271Q12.6336,35.6932,13.13,35.7639Q13.6331,35.8356,13.8761,36.158Q14.1195,36.4807,14.0477,36.9816ZM25.4171,42.0277L25.4533,42.0756Q25.9714,42.6003,26.0117,43.0385Q26.4108,44.3799,24.6953,46.4347Q24.4584,46.7551,24.5292,47.2504Q24.5978,47.7302,24.8977,47.972Q25.3978,48.2172,25.5998,48.2172Q26.183,48.2172,26.6678,47.7483Q28.898,44.6251,28.2839,42.3254Q28.0411,41.7323,27.4215,40.8279Q27.3479,40.7204,27.3,40.6496Q26.7233,40.2393,26.7233,39.7409Q26.7233,38.4532,27.8224,37.7181Q28.1387,37.4763,28.2094,36.9818Q28.2811,36.4807,28.0381,36.1577Q27.7953,35.8356,27.2922,35.7639Q26.7957,35.6932,26.4742,35.9271L26.4117,35.9725L26.3388,35.9982Q25.9156,36.1475,25.3085,37.0418Q24.4753,38.2691,24.4753,39.7409Q24.4753,40.7827,25.4171,42.0277Z" fill-rule="evenodd" fill="#6D6D6D" fill-opacity="1"/></g></svg>