<svg xmlns="http://www.w3.org/2000/svg" xmlns:xlink="http://www.w3.org/1999/xlink" fill="none" version="1.1" width="40" height="40" viewBox="0 0 40 40"><g><path d="M36.2025,40Q37.8192,40,38.9096,38.9096Q40,37.8192,40,36.2025L40,3.79745Q40,2.1808,38.9096,1.09039Q37.8192,-0.0000181794,36.2025,-0.0000181794L3.79745,-0.000018537Q2.1808,-0.0000181794,1.09039,1.09039Q-0.0000181794,2.1808,-0.0000181794,3.79745L-0.000018537,36.2025Q-0.0000181794,37.8192,1.09039,38.9096Q2.1808,40,3.79745,40L36.2025,40ZM3.79745,2.19407L36.2025,2.19407Q36.915,2.19407,37.3604,2.63953Q37.8059,3.085,37.8059,3.79745L37.8059,10.8017L2.19407,10.8017L2.19407,3.79745Q2.19407,3.08499,2.63953,2.63953Q3.08499,2.19407,3.79745,2.19407ZM15.9493,5.40084Q14.8523,5.40084,14.8523,6.49788Q14.8523,7.59493,15.9493,7.59493L24.0506,7.59493Q25.1476,7.59493,25.1476,6.49788Q25.1476,5.99516,24.8505,5.69799Q24.5533,5.40084,24.0506,5.40084L15.9493,5.40084ZM37.8059,12.9958L37.8059,36.2025Q37.8059,36.915,37.3604,37.3604Q36.915,37.8059,36.2025,37.8059L3.79745,37.8059Q3.085,37.8059,2.63953,37.3604Q2.19407,36.915,2.19407,36.2025L2.19407,12.9958L37.8059,12.9958ZM7.8481,33.2489L32.1519,33.2489Q32.6546,33.2489,32.9518,32.9518Q33.2489,32.6546,33.2489,32.1519Q33.2489,31.6491,32.9518,31.352Q32.6546,31.0548,32.1519,31.0548L29.1916,31.0548L29.4024,30.678Q30.4135,28.8713,30.4135,26.751Q30.4135,23.5141,28.1079,21.2085Q25.8024,18.9029,22.5654,18.9029Q21.2616,18.9029,20.0181,19.332L19.9353,19.3605L19.8526,19.3318Q18.6158,18.9029,17.2995,18.9029Q14.0626,18.9029,11.757,21.2085Q9.45144,23.5141,9.45144,26.751Q9.45143,28.8319,10.4737,30.6791L10.6817,31.0548L7.8481,31.0548Q6.75106,31.0548,6.75106,32.1519Q6.75106,33.2489,7.8481,33.2489ZM26.3073,31.0548L23.886,31.0548L24.1033,30.6758Q25.1476,28.8537,25.1476,26.751Q25.1476,23.7891,23.1715,21.5585L22.7276,21.0574L23.392,21.1394Q25.4943,21.3987,26.9183,22.9954Q28.3545,24.6056,28.3545,26.751Q28.3545,29.2351,26.3792,30.9909L26.3073,31.0548ZM13.6208,30.9909Q11.5821,29.1787,11.7806,26.7405Q11.7843,24.4146,13.4412,22.7577Q15.1019,21.097,17.4346,21.097Q18.7985,21.097,20.0047,21.7186L20.0066,21.7174L20.1188,21.779L20.1552,21.799Q21.4829,22.5329,22.2716,23.832Q23.0886,25.1778,23.0886,26.751Q23.0886,29.2351,21.1133,30.9909L21.0414,31.0548L13.6927,31.0548L13.6208,30.9909Z" fill-rule="evenodd" fill="#6D6D6D" fill-opacity="1" style="mix-blend-mode:passthrough"/></g></svg>