<svg xmlns="http://www.w3.org/2000/svg" xmlns:xlink="http://www.w3.org/1999/xlink" fill="none" version="1.1" width="56" height="41" viewBox="0 0 56 41"><g><path d="M37.7826,39.7881Q37.7651,40.2779,37.4259,40.6298Q37.0692,41,36.5652,41Q36.0612,41,35.7045,40.6298Q35.3461,40.2578,35.3468,39.7313L35.3469,30.6423L22.081,30.6423L22.081,39.7322Q22.081,40.2581,21.7227,40.6294Q21.3661,40.999,20.8626,40.999Q20.3591,40.999,20.0025,40.6294Q19.6442,40.2581,19.6442,39.7322L19.6442,30.6423L3.46143,30.6423Q2.44327,30.6421,1.68786,29.9334Q0.930948,29.2234,0.829328,28.1697L0.372736,23.4377Q-0.339148,16.0605,0.308517,8.67684L0.850962,2.49699Q0.944107,1.43551,1.70284,0.717211Q2.46005,0.000357956,3.48486,0.00000346452L52.5147,0.00000374764Q53.5398,-0.00000625104,54.2973,0.716895Q55.0564,1.4352,55.1495,2.49699L55.692,8.67683Q56.3386,16.0595,55.6278,23.4378L55.1712,28.1697Q55.0697,29.2234,54.3125,29.9336Q53.5568,30.6423,52.5381,30.6423L37.7826,30.6423L37.7826,39.7881ZM51.8388,2.66013L52.0832,2.53362L4.78826,2.53362Q4.15211,2.53362,3.68298,2.97815Q3.21546,3.42116,3.15865,4.07404L2.73426,8.90702Q2.16474,15.3953,2.68151,21.8891L2.79581,23.1831L3.12468,26.5854Q3.18739,27.2333,3.65413,27.6706Q4.12241,28.1092,4.75421,28.1086L16.7895,28.1086L16.7895,21.9782Q16.7895,20.8396,17.5659,20.035Q18.3406,19.2322,19.4353,19.2322L37.9926,19.2322Q39.0876,19.2318,39.8626,20.0347Q40.6393,20.8393,40.6393,21.9782L40.6393,28.1086L51.2464,28.1086Q51.8774,28.1086,52.3453,27.6698Q52.8113,27.2327,52.8748,26.5855L53.2027,23.184Q53.8282,16.7019,53.367,10.2029L53.2644,8.90693L52.8399,4.07291Q52.7825,3.42052,52.315,2.9783Q52.0956,2.77068,51.8388,2.66013ZM8.72889,11.4111Q7.92986,11.4107,7.3644,10.8244Q6.7973,10.2364,6.7973,9.40416Q6.7973,8.57196,7.3644,7.98394Q7.92986,7.39763,8.7289,7.39723Q9.52847,7.39682,10.0946,7.98325Q10.6624,8.57138,10.6624,9.40416Q10.6624,10.2369,10.0946,10.8251Q9.52847,11.4115,8.72889,11.4111ZM15.8665,11.4111Q15.0675,11.4107,14.5021,10.8244Q13.9349,10.2364,13.9349,9.40416Q13.9349,8.57196,14.5021,7.98394Q15.0675,7.39763,15.8665,7.39723Q16.6661,7.39682,17.2323,7.98325Q17.8,8.57138,17.8,9.40416Q17.8,10.2369,17.2323,10.8251Q16.6661,11.4115,15.8665,11.4111ZM38.2015,23.4575Q38.2015,22.7579,37.7237,22.2627Q37.2442,21.7658,36.5652,21.7658L20.8626,21.7658Q20.1836,21.7658,19.7041,22.2629Q19.2263,22.7583,19.2263,23.4585L19.2263,28.1086L38.2015,28.1086L38.2015,23.4575Z" fill-rule="evenodd" fill="#6D6D6D" fill-opacity="1" style="mix-blend-mode:passthrough"/></g></svg>