<svg xmlns="http://www.w3.org/2000/svg" xmlns:xlink="http://www.w3.org/1999/xlink" fill="none" version="1.1" width="51" height="34" viewBox="0 0 51 34"><g><path d="M49.9047,1.07393Q51,2.14613,51,3.66154L51,30.3385Q51,31.8539,49.9047,32.9261Q48.8076,34,47.2552,34L3.74482,34Q2.19242,34,1.09532,32.9261Q0,31.8539,0,30.3385L0,3.66154Q0,2.14612,1.09532,1.07393Q2.19242,0,3.74482,0L47.2552,0Q48.8076,0,49.9047,1.07393ZM48.854,30.3385L48.854,3.66154Q48.854,3.0103,48.3842,2.55043Q47.9162,2.09231,47.2552,2.09231L3.74482,2.09231Q3.08383,2.09231,2.61582,2.55043Q2.14603,3.0103,2.14603,3.66154L2.14603,30.3385Q2.14603,30.9897,2.61582,31.4496Q3.08383,31.9077,3.74482,31.9077L47.2552,31.9077Q47.9162,31.9077,48.3842,31.4496Q48.854,30.9897,48.854,30.3385ZM35.3182,7.99481Q35.3182,6.98957,34.6049,6.27882Q33.8917,5.56823,32.8832,5.56823L8.03563,5.56823Q7.02713,5.56823,6.31396,6.27882Q5.60062,6.98957,5.60062,7.99481L5.60062,26.0052Q5.60062,27.0104,6.31396,27.7212Q7.02713,28.4318,8.03563,28.4318L32.8832,28.4318Q33.8917,28.4318,34.6049,27.7212Q35.3182,27.0104,35.3182,26.0052L35.3182,7.99481ZM33.1461,26.2667L7.77274,26.2667L7.77274,7.73327L33.1461,7.73327L33.1461,26.2667ZM42.3019,7.79552Q41.4828,7.79552,40.9036,8.37134Q40.3245,8.94708,40.3245,9.76128Q40.3245,10.5755,40.9036,11.1512Q41.4828,11.727,42.3019,11.727Q43.121,11.727,43.7002,11.1512Q44.2793,10.5755,44.2793,9.76128Q44.2793,8.94708,43.7002,8.37134Q43.121,7.79552,42.3019,7.79552ZM43.9525,19.3369Q44.2792,19.6874,44.2792,20.1595Q44.2792,20.6316,43.9525,20.982Q43.6278,21.3303,43.1475,21.3797L40.6075,21.3797L40.5951,21.3809Q40.0344,21.4341,39.6179,21.0665Q39.2044,20.7014,39.2044,20.1595Q39.2044,19.6175,39.6179,19.2524Q40.0344,18.8848,40.5951,18.938L40.6075,18.9392L43.1475,18.9392Q43.6278,18.9886,43.9525,19.3369ZM43.9525,24.1545Q44.2792,24.505,44.2792,24.9771Q44.2792,25.4492,43.9525,25.7996Q43.6278,26.1479,43.1475,26.1973L40.6075,26.1973L40.5951,26.1985Q40.0344,26.2517,39.6179,25.8841Q39.2044,25.519,39.2044,24.9771Q39.2044,24.4351,39.6179,24.07Q40.0344,23.7024,40.5951,23.7556L40.6075,23.7568L43.1475,23.7568Q43.6278,23.8063,43.9525,24.1545Z" fill-rule="evenodd" fill="#6D6D6D" fill-opacity="1" style="mix-blend-mode:passthrough"/></g></svg>