<svg xmlns="http://www.w3.org/2000/svg" xmlns:xlink="http://www.w3.org/1999/xlink" fill="none" version="1.1" width="48.210872650146484" height="39.40630340576172" viewBox="0 0 48.210872650146484 39.40630340576172"><g><path d="M11.5743,2.13109Q5.565,4.24344,0.529929,8.24818Q0.0778011,8.59898,0.0106336,9.16575Q-0.056534,9.73252,0.301174,10.1785Q0.658883,10.6244,1.2289,10.6845Q1.79893,10.7446,2.24683,10.3797Q6.91467,6.6672,12.4857,4.70854Q18.1062,2.7325,24.1085,2.7325Q30.1089,2.7325,35.7277,4.70722Q41.297,6.66451,45.9684,10.3783Q46.412,10.7398,46.982,10.6797Q47.552,10.6196,47.9097,10.1736Q48.2675,9.72766,48.2003,9.16088Q48.1331,8.5941,47.6766,8.23985Q42.6466,4.24065,36.6388,2.12958Q30.5781,-0.000037204,24.1085,-0.0000372766Q17.637,-0.000037204,11.5743,2.13109ZM14.8878,12.4922Q10.4591,13.9693,6.7025,16.7796Q6.24276,17.1179,6.16022,17.6811Q6.07767,18.2443,6.42117,18.6993Q6.76467,19.1543,7.331,19.2319Q7.89734,19.3095,8.3546,18.9615Q15.3408,13.7347,24.1073,13.7346Q32.8713,13.7346,39.8569,18.959Q40.3113,19.2989,40.8741,19.2194Q41.4368,19.1398,41.7783,18.6873Q42.1197,18.2349,42.0398,17.6746Q41.9599,17.1143,41.5055,16.7744Q37.7526,13.9678,33.3243,12.4914Q28.8575,11.0021,24.1073,11.0021Q19.3554,11.0021,14.8878,12.4922ZM34.1385,25.3328L34.1701,25.3565Q34.5958,25.6914,34.673,26.2325Q34.753,26.7929,34.4116,27.2455Q34.0701,27.6981,33.5073,27.7777Q32.9444,27.8574,32.49,27.5176Q28.766,24.7282,24.1064,24.7368Q19.4413,24.7368,15.7168,27.5219Q15.2609,27.8746,14.691,27.7988Q14.1211,27.723,13.7757,27.2654Q13.4303,26.8077,13.5157,26.2416Q13.6011,25.6755,14.0708,25.3358Q18.5292,21.9961,24.1065,22.0042Q29.6877,22.0042,34.1385,25.3328ZM26.3781,33.9436Q25.4367,33.0064,24.1054,33.0064Q22.7741,33.0064,21.8328,33.9436Q20.8914,34.8809,20.8914,36.2063Q20.8914,37.5318,21.8328,38.469Q22.7741,39.4063,24.1054,39.4063Q25.4367,39.4063,26.3781,38.469Q27.3195,37.5318,27.3195,36.2063Q27.3194,34.8808,26.3781,33.9436Z" fill-rule="evenodd" fill="#6D6D6D" fill-opacity="1"/></g></svg>