<svg xmlns="http://www.w3.org/2000/svg" xmlns:xlink="http://www.w3.org/1999/xlink" fill="none" version="1.1" width="51.49617385864258" height="49.15384292602539" viewBox="0 0 51.49617385864258 49.15384292602539"><g><path d="M38.6964,49.14L38.6824,49.1539Q38.2571,49.1459,37.9233,48.8703Q37.5758,48.5834,37.4765,48.1325L36.5763,43.4268L14.5892,43.4268L13.6843,48.1568L13.682,48.1728Q13.6232,48.5832,13.2735,48.8651Q12.9412,49.1328,12.5252,49.1525Q12.3549,49.1043,12.2169,49.0923Q11.7352,48.9882,11.44,48.5599Q11.1334,48.1151,11.2298,47.6032L12.06,42.9441L11.5061,42.7443Q8.23123,41.5629,6.19104,38.7384Q4.09948,35.8427,4.09948,32.2743L4.09948,24.7964L1.28334,24.7964Q0.730358,24.7964,0.365171,24.4328Q-0.0000189914,24.0692,-0.0000189914,23.5187Q-0.0000190146,22.9681,0.36517,22.6045Q0.730359,22.2409,1.28334,22.2409L44.8299,22.2409L44.8299,10.879Q44.8299,7.7016,43.6471,5.51253Q42.4062,3.21604,40.2661,2.69777Q37.9519,2.12173,35.5999,3.94295Q33.3882,5.65569,31.7256,9.07Q31.5059,9.53865,31.0078,9.70965Q30.5029,9.88301,30.0115,9.65469Q29.5407,9.43599,29.369,8.94007Q29.1949,8.4373,29.4182,7.96046Q31.8002,3.12968,35.2227,1.16376Q38.0228,-0.444631,40.8007,0.169956Q43.7799,0.844081,45.5691,3.6943Q47.3966,6.60563,47.3967,10.8131L47.3967,22.2409L50.2128,22.2409Q50.7658,22.2409,51.131,22.6045Q51.4962,22.9681,51.4962,23.5187Q51.4962,24.0692,51.131,24.4328Q50.7658,24.7964,50.2128,24.7964L47.595,24.7964L47.595,32.2084Q47.595,35.9438,45.3704,38.9093Q43.1767,41.8336,39.6984,42.8632L39.0958,43.0415L39.937,47.6099Q40.0321,48.1151,39.7256,48.5599Q39.4186,49.0052,38.9093,49.1002L38.6964,49.14ZM21.6487,11.3787Q20.7884,11.3787,20.1801,11.9843Q19.5719,12.5899,19.5719,13.4464Q19.5719,14.3029,20.1801,14.9085Q20.7884,15.5141,21.6487,15.5141Q22.5089,15.5141,23.1172,14.9085Q23.7255,14.3029,23.7255,13.4464Q23.7255,12.5899,23.1172,11.9843Q22.5089,11.3787,21.6487,11.3787ZM32.3601,14.4727Q31.4999,14.4727,30.8916,15.0783Q30.2833,15.684,30.2833,16.5404Q30.2833,17.3969,30.8916,18.0025Q31.4999,18.6082,32.3601,18.6082Q33.2204,18.6082,33.8287,18.0025Q34.4369,17.3969,34.4369,16.5404Q34.4369,15.684,33.8287,15.0783Q33.2204,14.4727,32.3601,14.4727ZM45.0283,31.5112L45.0944,31.5112L45.0944,32.2084Q45.0944,35.7559,42.5586,38.2807Q40.0227,40.8054,36.4597,40.8054L15.2348,40.8054Q11.6718,40.8054,9.13594,38.2807Q6.60006,35.7559,6.60007,32.2084L6.60007,24.8622L45.0283,24.8622L45.0283,31.5112Z" fill-rule="evenodd" fill="#6D6D6D" fill-opacity="1"/></g></svg>