<svg xmlns="http://www.w3.org/2000/svg" xmlns:xlink="http://www.w3.org/1999/xlink" fill="none" version="1.1" width="35.505859375" height="45.3546142578125" viewBox="0 0 35.505859375 45.3546142578125"><g><path d="M34.7346,0.771365Q35.506,1.54269,35.506,2.60154L35.506,41.2379Q35.506,42.2968,34.7346,43.0681Q33.9633,43.8394,32.9044,43.8394L30.2029,43.8394L30.2029,44.647Q30.2029,44.9672,30.0092,45.1609Q29.8155,45.3546,29.4954,45.3546L28.7378,45.3546Q28.4176,45.3546,28.2239,45.1609Q28.0302,44.9672,28.0302,44.647L28.0302,43.8394L7.47566,43.8394L7.47566,44.647Q7.47566,44.9672,7.28197,45.1609Q7.08829,45.3546,6.76808,45.3546L6.01051,45.3546Q5.69031,45.3546,5.49662,45.1609Q5.30293,44.9672,5.30293,44.647L5.30293,43.8394L2.60142,43.8394Q1.54258,43.8394,0.771242,43.0681Q-0.0000976473,42.2967,-0.0000976473,41.2379L-0.000097394,2.60154Q-0.0000976473,1.5427,0.771242,0.771365Q1.54258,0.0000246763,2.60142,0.0000246763L32.9044,0.000024423Q33.9633,0.0000246763,34.7346,0.771365ZM2.29144,2.29156Q2.17263,2.41037,2.17263,2.60154L2.17263,10.2273L33.3332,10.2273L33.3332,2.60154Q33.3332,2.41037,33.2144,2.29156Q33.0956,2.17275,32.9044,2.17275L2.60142,2.17275Q2.41025,2.17275,2.29144,2.29156ZM4.49279,6.77068Q4.16653,6.44442,4.16653,6.01058Q4.16653,5.57675,4.49279,5.25048Q4.81906,4.92422,5.25289,4.92422L6.01047,4.92422Q6.4443,4.92422,6.77057,5.25048Q7.09683,5.57675,7.09683,6.01058Q7.09683,6.44442,6.77057,6.77068Q6.4443,7.09694,6.01047,7.09695L5.25289,7.09695Q4.81906,7.09695,4.49279,6.77068ZM9.03825,6.77068Q8.71198,6.44442,8.71198,6.01058Q8.71198,5.57674,9.03825,5.25048Q9.36451,4.92422,9.79835,4.92422L10.5559,4.92422Q10.9897,4.92422,11.316,5.25048Q11.6423,5.57675,11.6423,6.01058Q11.6423,6.44442,11.316,6.77068Q10.9898,7.09694,10.5559,7.09695L9.79835,7.09695Q9.36451,7.09695,9.03825,6.77068ZM24.1898,6.77068Q23.8635,6.44442,23.8635,6.01058Q23.8635,5.57674,24.1898,5.25048Q24.516,4.92422,24.9499,4.92422L30.2529,4.92422Q30.6867,4.92422,31.013,5.25048Q31.3392,5.57675,31.3393,6.01058Q31.3393,6.44443,31.013,6.77068Q30.6867,7.09694,30.2529,7.09695L24.9499,7.09695Q24.516,7.09694,24.1898,6.77068ZM33.2144,41.5479Q33.3332,41.4291,33.3332,41.2379L33.3332,12.4L2.17263,12.4L2.17263,41.2379Q2.17263,41.4291,2.29144,41.5479Q2.41025,41.6667,2.60142,41.6667L32.9044,41.6667Q33.0956,41.6667,33.2144,41.5479ZM13.6116,16.5195Q15.7698,15.6061,18.1317,15.606Q20.4936,15.606,22.6517,16.5195Q24.7362,17.4017,26.3444,19.01Q27.9528,20.6182,28.8349,22.7027Q29.7483,24.8608,29.7483,27.2227Q29.7483,29.5847,28.8349,31.7427Q27.9526,33.8271,26.3444,35.4355Q24.736,37.0439,22.6517,37.9259Q20.4934,38.8393,18.1317,38.8394Q15.77,38.8393,13.6116,37.9259Q11.5273,37.0439,9.91893,35.4355Q8.31068,33.8272,7.42844,31.7428Q6.51501,29.5845,6.51502,27.2227Q6.51504,24.8608,7.42844,22.7027Q8.31068,20.6182,9.91893,19.01Q11.5272,17.4017,13.6116,16.5195ZM14.4153,36.0578Q16.1972,36.8181,18.1317,36.8182Q20.0662,36.8183,21.848,36.0578Q23.5667,35.3242,24.9,33.991Q26.2332,32.6578,26.9667,30.9391Q27.7271,29.1574,27.7271,27.2227Q27.7271,25.288,26.9667,23.5063Q26.2331,21.7875,24.9,20.4544Q23.5668,19.1213,21.848,18.3877Q20.0664,17.6272,18.1317,17.6272Q16.197,17.6272,14.4153,18.3877Q12.6966,19.1212,11.3634,20.4544Q10.0302,21.7875,9.29663,23.5063Q8.53623,25.288,8.53622,27.2227Q8.53623,29.1574,9.29663,30.9391Q10.0302,32.6578,11.3634,33.991Q12.6967,35.3242,14.4153,36.0578ZM25.6721,26.5005Q25.9604,26.7889,25.9604,27.2227Q25.9604,28.8024,25.3406,30.2559Q24.7425,31.6586,23.655,32.7461Q22.5675,33.8336,21.1648,34.4317Q19.7113,35.0515,18.1317,35.0515Q17.6978,35.0515,17.4094,34.7631Q17.1211,34.4748,17.1211,34.0409Q17.1211,33.6071,17.4094,33.3187Q17.6978,33.0303,18.1317,33.0303Q19.3139,33.0303,20.3931,32.5742Q21.4354,32.1336,22.239,31.3301Q23.0425,30.5265,23.4831,29.4841Q23.9393,28.405,23.9392,27.2227Q23.9392,26.7889,24.2276,26.5005Q24.516,26.2121,24.9498,26.2121Q25.3837,26.2121,25.6721,26.5005Z" fill-rule="evenodd" fill="#6D6D6D" fill-opacity="1" style="mix-blend-mode:passthrough"/></g></svg>