<svg xmlns="http://www.w3.org/2000/svg" xmlns:xlink="http://www.w3.org/1999/xlink" fill="none" version="1.1" width="105" height="37" viewBox="0 0 105 37"><defs><clipPath id="master_svg0_11_9285"><rect x="8" y="7" width="24" height="24" rx="0"/></clipPath></defs><g><g><path d="M18.664,0L86.3358,0C96.601,0,105,8.3249,105,18.4999C105,28.6749,96.6011,37,86.3358,37L18.664,37C8.39875,37,0,28.6749,0,18.4999C0,8.3249,8.39875,0,18.664,0Z" fill="#FF841F" fill-opacity="1"/></g><g><path d="M53.28,22.76Q53.22,23.72,53.06,24.72Q52.84,25.88,52.53,26.46Q52.22,27.04,51.57,27.28Q50.92,27.52,49.66,27.58Q47.16,27.68,45.16,27.68Q43.32,27.68,41.019999999999996,27.58Q39.72,27.52,39.04,27.23Q38.36,26.94,38.06,26.26Q37.76,25.58,37.76,24.28L37.76,14.84L39.7,14.92L39.7,17.380000000000003L49.56,17.380000000000003L49.56,12.96L37.26,12.96L37.26,11.059999999999999L51.480000000000004,11.059999999999999L51.480000000000004,19.22L39.7,19.22L39.7,23.78Q39.7,24.6,39.85,24.98Q40,25.36,40.39,25.51Q40.78,25.66,41.64,25.7Q43.7,25.8,45.36,25.8Q47.019999999999996,25.8,49.08,25.7Q49.94,25.64,50.33,25.52Q50.72,25.4,50.9,25.07Q51.08,24.74,51.2,24.02Q51.34,23.12,51.379999999999995,22.12L53.28,22.76ZM69.58,25.44L69.58,20L71.46000000000001,20.08L71.46000000000001,27.94L69.58,27.94L69.58,27.18L56.36,27.18L56.36,20.04L58.239999999999995,20.119999999999997L58.239999999999995,25.44L62.980000000000004,25.44L62.980000000000004,18.6L57.019999999999996,18.6L57.019999999999996,11.64L58.879999999999995,11.7L58.879999999999995,16.8L62.980000000000004,16.8L62.980000000000004,9.84L64.8,9.92L64.8,16.8L68.92,16.8L68.92,11.64L70.78,11.7L70.78,18.6L64.8,18.6L64.8,25.44L69.58,25.44ZM80.52000000000001,22.28Q79.72,21.2,78.68,20.119999999999997L78.68,27.9L77,27.9L77,20.5Q75.96000000000001,22.62,74.78,24.32L73.56,22.92Q74.47999999999999,21.619999999999997,75.31,20.119999999999997Q76.14,18.619999999999997,76.7,17.14L74.3,17.14L74.3,15.38L77,15.38L77,13L76.53999999999999,13.08Q75.38,13.3,74.52000000000001,13.42L74.34,11.7Q75.86,11.48,77.72999999999999,11.09Q79.6,10.7,80.94,10.32L81.22,12Q80.4,12.26,78.68,12.66L78.68,15.38L81.36,15.38L81.36,17.14L78.68,17.14L78.68,18.78L79.12,18.3Q79.7,18.84,80.39,19.57Q81.08,20.3,81.56,20.9L80.52000000000001,22.28ZM90.12,10.76L90.12,25.64L91.88,25.64L91.88,27.4L80.14,27.4L80.14,25.64L81.96000000000001,25.64L81.96000000000001,10.76L90.12,10.76ZM88.38,15.72L88.38,12.52L83.66,12.52L83.66,15.72L88.38,15.72ZM83.66,20.58L88.38,20.58L88.38,17.48L83.66,17.48L83.66,20.58ZM88.38,22.34L83.66,22.34L83.66,25.64L88.38,25.64L88.38,22.34Z" fill="#FFFFFF" fill-opacity="1"/></g><g clip-path="url(#master_svg0_11_9285)"><g><path d="M29.77993359375,11.4397265625L19.99993359375,21.2197265625L16.29193359375,17.5117265625L15.043933593750001,18.7597265625L19.37593359375,23.0917265625L19.99993359375,23.6917265625L20.62393359375,23.0917265625L31.02793359375,12.6877265625L29.77993359375,11.4397265625ZM19.99993359375,7.7197265625C13.759933593749999,7.7197265625,8.73193359375,12.747726562499999,8.73193359375,18.9877265625C8.73193359375,25.2277265625,13.759933593749999,30.2557265625,19.99993359375,30.2557265625C26.23993359375,30.2557265625,31.26793359375,25.2277265625,31.26793359375,18.9877265625C31.26793359375,17.775726562499997,31.09993359375,16.5637265625,30.66793359375,15.435726562500001L29.26393359375,16.8157265625C29.43193359375,17.5117265625,29.53993359375,18.2077265625,29.53993359375,18.9877265625C29.53993359375,24.2797265625,25.29193359375,28.5277265625,19.99993359375,28.5277265625C14.707933593749999,28.5277265625,10.45993359375,24.2797265625,10.45993359375,18.9877265625C10.45993359375,13.695726562499999,14.707933593749999,9.4477265625,19.99993359375,9.4477265625C22.60393359375,9.4477265625,24.93193359375,10.4797265625,26.58793359375,12.1357265625L27.79993359375,10.9237265625C25.80793359375,8.9317265625,23.035933593750002,7.7197265625,19.99993359375,7.7197265625Z" fill="#FFFFFF" fill-opacity="1"/></g></g></g></svg>