<svg xmlns="http://www.w3.org/2000/svg" xmlns:xlink="http://www.w3.org/1999/xlink" fill="none" version="1.1" width="46.65568542480469" height="50.234554290771484" viewBox="0 0 46.65568542480469 50.234554290771484"><g><path d="M46.1452,46.0423Q46.6557,45.5362,46.6557,44.8232L46.6557,1.73056Q46.6557,1.01685,46.1451,0.508439Q45.6344,0.0000192639,44.9176,0.0000191353L1.73816,0.0000191587Q1.02132,0.0000191236,0.510671,0.508437Q0.0000189728,1.01685,0.0000192194,1.73056L0.0000192429,44.8175Q0.0000192546,45.5312,0.510672,46.0396Q1.02134,46.548,1.73816,46.548L6.77884,46.548L6.77884,49.1846Q6.77884,49.6176,7.0887,49.9261Q7.39854,50.2346,7.8334,50.2346Q8.26934,50.2346,8.57822,49.9281Q8.88797,49.6208,8.88797,49.1846L8.88797,46.548L37.7678,46.548L37.7678,49.1846Q37.7678,49.6176,38.0776,49.9261Q38.3874,50.2346,38.8223,50.2346Q39.2582,50.2346,39.5671,49.9281Q39.8769,49.6208,39.8769,49.1846L39.8769,46.548L44.9176,46.548Q45.635,46.548,46.1452,46.0423ZM23.9822,2.09992L23.9822,44.4481L2.10914,44.4481L2.10914,2.09992L23.9822,2.09992ZM26.0914,13.3225L26.0914,2.09992L44.5466,2.09992L44.5466,13.3225L26.0914,13.3225ZM44.5466,30.7343L26.0914,30.7343L26.0914,15.4224L44.5466,15.4224L44.5466,30.7343ZM19.6199,25.1471Q19.9278,24.8395,19.9278,24.4055L19.9278,21.6264Q19.9278,21.1935,19.6179,20.885Q19.3081,20.5765,18.8732,20.5765Q18.4383,20.5765,18.1285,20.885Q17.8186,21.1935,17.8186,21.6264L17.8186,24.4055Q17.8186,24.8385,18.1285,25.147Q18.4383,25.4555,18.8732,25.4555Q19.3113,25.4555,19.6199,25.1471ZM26.0914,32.8342L44.5466,32.8342L44.5466,44.4481L26.0914,44.4481L26.0914,32.8342Z" fill-rule="evenodd" fill="#6D6D6D" fill-opacity="1"/></g></svg>