<svg xmlns="http://www.w3.org/2000/svg" xmlns:xlink="http://www.w3.org/1999/xlink" fill="none" version="1.1" width="31.19970703125" height="40.2000732421875" viewBox="0 0 31.19970703125 40.2000732421875"><g><path d="M29.4978,16.6874L29.6011,16.8016Q31.2011,18.5712,31.1999,20.9332L31.1999,39.2667Q31.1999,39.6508,30.9212,39.9237Q30.639,40.2,30.2382,40.2Q29.8374,40.2,29.5552,39.9237Q29.2765,39.6508,29.2765,39.2667L29.2765,29.2L24.051,29.2L24.051,35.2667Q24.051,35.6508,23.7723,35.9237Q23.4901,36.2,23.0893,36.2Q22.6885,36.2,22.4063,35.9237Q22.1276,35.6508,22.1276,35.2667L22.1276,29.2L9.07227,29.2L9.07227,35.2667Q9.07227,35.6508,8.79359,35.9237Q8.51138,36.2,8.11057,36.2Q7.70975,36.2,7.42755,35.9237Q7.14886,35.6508,7.14886,35.2667L7.14886,29.2L1.92333,29.2L1.92333,39.2667Q1.92333,39.6508,1.64465,39.9237Q1.36244,40.2,0.96163,40.2Q0.560817,40.2,0.278611,39.9237Q-0.0000723451,39.6508,-0.0000725091,39.2667L-0.0000723749,20.9334Q-0.00117365,18.5712,1.59876,16.8016L1.70206,16.6874L1.70206,1.26669Q1.70206,0.744486,2.08045,0.373978Q2.46236,0.0000181869,3.00418,0.0000183508L28.1957,0.0000183359Q28.7375,0.0000183508,29.1194,0.373978Q29.4978,0.744492,29.4978,1.26669L29.4978,16.6874ZM27.0357,15.0699L27.5744,15.2691L27.5744,2.93335Q27.5744,2.48905,27.2548,2.17614Q26.9388,1.86669,26.4935,1.86669L4.70631,1.86669Q4.26107,1.86668,3.94503,2.17614Q3.62546,2.48905,3.62546,2.93335L3.62546,15.2691L4.16419,15.0699Q5.24918,14.6687,6.40912,14.6667L24.7914,14.6667Q25.9507,14.6687,27.0357,15.0699ZM1.92333,21.9334L1.92333,27.3334L29.2765,27.3334L29.2765,21.9334Q29.2765,19.6942,27.6607,18.112Q26.0485,16.5333,23.7701,16.5334L7.42971,16.5334Q5.15135,16.5334,3.53911,18.112Q1.92332,19.6941,1.92333,21.9334Z" fill-rule="evenodd" fill="#6D6D6D" fill-opacity="1" style="mix-blend-mode:passthrough"/></g></svg>