<svg xmlns="http://www.w3.org/2000/svg" xmlns:xlink="http://www.w3.org/1999/xlink" fill="none" version="1.1" width="54.43163299560547" height="49.78563690185547" viewBox="0 0 54.43163299560547 49.78563690185547"><g><path d="M28.2091,41.6835L37.2674,46.3001Q37.7647,46.6323,37.7647,47.1932L37.7647,47.7672L37.9569,47.849Q38.1635,47.937,38.3181,48.1372Q38.5162,48.3935,38.5162,48.6897Q38.5162,49.1376,38.2445,49.4082Q37.9727,49.6787,37.5229,49.6787L36.0197,49.6787Q35.5699,49.6787,35.2981,49.4082Q35.0264,49.1376,35.0264,48.6897Q35.0264,48.3183,35.3701,47.9998L35.7001,47.694L28.2091,43.8552L28.2091,45.6292L28.4013,45.7111Q28.6079,45.799,28.7626,45.9992Q28.9607,46.2556,28.9607,46.5518Q28.9607,46.9997,28.689,47.2702Q28.4172,47.5408,27.9673,47.5408L26.4642,47.5408Q26.0143,47.5408,25.7426,47.2702Q25.4709,46.9997,25.4709,46.5518Q25.4709,46.2556,25.6689,45.9992Q25.8236,45.799,26.0302,45.7111L26.2224,45.6292L26.2224,43.8552L18.7484,47.6853L19.099,47.9908Q19.4052,48.2574,19.4052,48.6897Q19.4052,49.1376,19.1334,49.4082Q18.8617,49.6787,18.4118,49.6787L16.9087,49.6787Q16.4588,49.6787,16.1871,49.4082Q15.9153,49.1376,15.9153,48.6897Q15.9153,48.3935,16.1134,48.1372Q16.2681,47.937,16.4747,47.849L16.6669,47.7672L16.6669,47.1932Q16.6669,46.6323,17.1642,46.3001L26.2224,41.6835L26.2224,39.6305L24.7464,39.6305Q24.2965,39.6305,24.0247,39.3599Q23.753,39.0894,23.753,38.6415L23.753,32.896L15.2982,32.896Q13.5967,32.8961,12.9019,31.3395Q12.1871,29.7737,13.4934,27.8281L13.8229,27.3375L10.2791,27.3375L10.2791,48.7966Q10.2791,49.2445,10.0073,49.5151Q9.73557,49.7856,9.28569,49.7856L3.67744,49.7856Q3.22757,49.7856,2.95586,49.5151Q2.68414,49.2445,2.68414,48.7966L2.68414,27.4444L0.993381,27.4444Q0.543486,27.4444,0.271736,27.1738Q-0.0000193051,26.9033,-0.0000193287,26.4554L-0.0000193287,19.2682Q-0.0000193051,18.8203,0.271735,18.5497Q0.543487,18.2792,0.993382,18.2792L13.0055,18.2792L13.0479,18.0133Q13.2312,16.8642,13.2312,16.1682L13.2312,14.244Q13.2312,11.3821,14.319,8.74422Q15.372,6.19049,17.2886,4.21125Q19.2116,2.2254,21.6987,1.13396Q24.2828,-0.0000191736,27.1084,-0.0000188682Q32.9804,-0.0000180458,37.0366,4.03859Q38.9704,5.96397,40.0255,8.48906Q41.093,11.044,41.093,13.8165L41.093,16.1682Q41.093,16.8643,41.2763,18.0133L41.3187,18.2792L53.4382,18.2792Q53.8816,18.2792,54.162,18.5384Q54.4316,18.7877,54.4316,19.1613L54.4316,26.3485Q54.4316,26.7964,54.1599,27.0669Q53.8881,27.3375,53.4382,27.3375L51.7475,27.3375L51.7475,48.5828Q51.7475,49.0307,51.4757,49.3013Q51.2039,49.5718,50.754,49.5718L45.1458,49.5718Q44.6959,49.5718,44.4242,49.3013Q44.1524,49.0307,44.1524,48.5828L44.1524,27.2306L40.6116,27.2306L40.935,27.7194Q42.1437,29.5464,41.5283,31.2355L41.527,31.2393L41.5257,31.243Q41.2916,31.9396,40.6461,32.3613Q39.9913,32.7892,39.1333,32.7892L30.6785,32.7892L30.6785,38.5346Q30.6785,38.9825,30.4068,39.2531Q30.1351,39.5236,29.6852,39.5236L28.2091,39.5236L28.2091,41.6835ZM39.2166,18.2792L15.106,18.2792L15.1434,17.9304Q15.2179,17.2352,15.2179,16.1682L15.2179,14.244Q15.218,9.1483,18.7031,5.56993Q22.2015,1.978,27.2158,1.978Q32.0135,1.978,35.6435,5.41869L35.6464,5.42138L35.6491,5.42415Q39.1063,8.86773,39.1063,13.8165L39.1063,16.1683Q39.1063,17.2955,39.1773,17.9288L39.2166,18.2792ZM52.4448,20.1503L52.4448,25.3594L1.98669,25.3594L1.98669,20.1503L52.4448,20.1503ZM8.29238,27.3375L8.29238,47.7007L4.67085,47.7007L4.67085,27.3375L8.29238,27.3375ZM49.7607,27.3375L49.7607,47.7007L46.1392,47.7007L46.1392,27.3375L49.7607,27.3375ZM17.3381,27.3375L36.5566,27.3375Q37.7697,27.3375,38.6517,28.2144Q39.3297,28.8151,39.5982,29.5687Q39.8321,30.2249,39.6431,30.5405L39.6431,30.686L39.4327,30.7607Q39.2904,30.8111,39.026,30.8111L15.0835,30.8111Q14.6899,30.8111,14.5333,30.6229Q14.5278,30.6163,14.5225,30.6101L14.4684,30.5465L14.4529,30.4646Q14.3752,30.0551,14.551,29.5301Q14.7948,28.8019,15.4578,28.2144Q16.3395,27.3375,17.3381,27.3375ZM28.6918,32.8961L28.6918,37.6525L25.6324,37.6525L25.6324,32.8961L28.6918,32.8961Z" fill-rule="evenodd" fill="#6D6D6D" fill-opacity="1"/></g></svg>