<svg xmlns="http://www.w3.org/2000/svg" xmlns:xlink="http://www.w3.org/1999/xlink" fill="none" version="1.1" width="48.2001953125" height="35.2003173828125" viewBox="0 0 48.2001953125 35.2003173828125"><g><path d="M48.10009765625,2.5998655859375C48.10009765625,1.2192155859375,46.94879765625,0.0999755859375,45.52869765625,0.0999755859375L2.67152765625,0.0999755859375C1.25136765625,0.0999755859375,0.10009765625,1.2192155859375,0.10009765625,2.5998655859375L0.10009765625,4.2664555859375C0.10009765625,5.6471055859375,1.25136765625,6.7663455859375,2.67152765625,6.7663455859375L3.52880765625,6.7663455859375L3.52880765625,34.2650755859375L3.54252765625,34.4150755859375C3.62161765625,34.8397755859375,4.02122765625,35.1354755859375,4.46339765625,35.0964755859375C4.90556765625,35.0574755859375,5.24390765625,34.6966755859375,5.24309765625,34.2650755859375L5.24309765625,6.7663455859375L22.38569765625,6.7663455859375L22.38569765625,15.0992755859375C22.38569765625,15.4028755859375,22.46919765625,15.6874755859375,22.61509765625,15.9325755859375C22.46919765625,16.1777755859375,22.38569765625,16.4623755859375,22.38569765625,16.7659755859375L22.38569765625,25.0988755859375C22.38569765625,26.0193755859375,23.15329765625,26.7654755859375,24.09999765625,26.7654755859375L42.95739765625,26.7654755859375L42.95739765625,34.2650755859375L42.97109765625,34.4150755859375C43.05019765625,34.8397755859375,43.44979765625,35.1354755859375,43.89199765625,35.0964755859375C44.33409765625,35.0574755859375,44.67249765625,34.6966755859375,44.67169765625,34.2650755859375L44.67169765625,6.7663455859375L45.52869765625,6.7663455859375C46.94879765625,6.7663455859375,48.10009765625,5.6471055859375,48.10009765625,4.2664555859375L48.10009765625,2.5998655859375ZM42.95719765625,6.7663255859375L24.09999765625,6.7663255859375L24.09999765625,15.0992755859375L42.95719765625,15.0992755859375L42.95719765625,6.7663255859375ZM2.67152765625,1.9332255859375L45.52869765625,1.9332255859375L45.66579765625,1.9465555859375C45.98509765625,2.0099255859375003,46.21449765625,2.2830355859375,46.21439765625,2.5998655859375L46.21439765625,4.2664555859375L46.20069765625,4.3997855859375C46.13549765625,4.7102055859375,45.85459765625,4.9331555859375,45.52869765625,4.9330955859375L2.67152765625,4.9330955859375L2.53438765625,4.9197555859375C2.21506765625,4.8563955859375,1.98574765625,4.5832855859375,1.98580765625,4.2664555859375L1.98580765625,2.5998655859375L1.99952765625,2.4665355859375C2.06470765625,2.1561055859375,2.34562765625,1.9331655859375,2.67152765625,1.9332255859375ZM36.95719765625,11.7660755859375L36.95719765625,10.0995255859375L30.10009765625,10.0995255859375L30.10009765625,11.7660755859375L36.95719765625,11.7660755859375ZM42.95719765625,25.0988755859375L42.95719765625,16.7659755859375L24.09999765625,16.7659755859375L24.09999765625,25.0988755859375L42.95719765625,25.0988755859375ZM36.95719765625,21.7656755859375L36.95719765625,20.0990755859375L30.10009765625,20.0990755859375L30.10009765625,21.7656755859375L36.95719765625,21.7656755859375Z" fill-rule="evenodd" fill="#6D6D6D" fill-opacity="1" style="mix-blend-mode:passthrough"/><path d="M48.00009765625,2.5998655859375Q48.00009765625,1.6066255859375,47.27719765625,0.9038765859375Q46.55319765625,0.1999755859375,45.52869765625,0.1999755859375L2.67152765625,0.1999755859375Q1.64700765625,0.1999755859375,0.92295765625,0.9038765859375Q0.20009765625,1.6066255859375,0.20009765625,2.5998655859375L0.20009765625,4.2664555859375Q0.20009765625,5.2596955859375,0.92295865625,5.9624455859375Q1.64700765625,6.6663455859375,2.67152765625,6.6663455859375L3.62880765625,6.6663455859375L3.62880765625,34.2650755859375L3.52880765625,34.2650755859375L3.62839765625,34.2559755859375L3.64210765625,34.4059755859375L3.54252765625,34.4150755859375L3.64083765625,34.3967755859375Q3.69294765625,34.6766755859375,3.92629765625,34.8492755859375Q4.16075765625,35.0227755859375,4.45461765625,34.9968755859375Q4.74820765625,34.9709755859375,4.94641765625,34.7595755859375Q5.14362765625,34.5492755859375,5.14309765625,34.2652755859375L5.14309765625,6.6663455859375L22.48569765625,6.6663455859375L22.48569765625,15.0992755859375Q22.48569765625,15.5196755859375,22.70099765625,15.8814755859375L22.73149765625,15.9325755859375L22.70099765625,15.9837755859375Q22.48569765625,16.3455755859375,22.48569765625,16.7659755859375L22.48569765625,25.0988755859375Q22.48579765625,25.7469755859375,22.95759765625,26.2056755859375Q23.43059765625,26.6654755859375,24.09999765625,26.6654755859375L43.05739765625,26.6654755859375L43.05739765625,34.2650755859375L42.95739765625,34.2650755859375L43.05699765625,34.2559755859375L43.07069765625,34.4059755859375L42.97109765625,34.4150755859375L43.06939765625,34.3967755859375Q43.12149765625,34.6766755859375,43.35489765625,34.8492755859375Q43.58939765625,35.0227755859375,43.88319765625,34.9968755859375Q44.17679765625,34.9709755859375,44.37499765625,34.7595755859375Q44.57219765625,34.5492755859375,44.57169765625,34.2652755859375L44.57169765625,6.6663455859375L45.52869765625,6.6663455859375Q46.55319765625,6.6663455859375,47.27719765625,5.9624355859375Q48.00009765625,5.2596855859375,48.00009765625,4.2664555859375L48.00009765625,2.5998655859375L48.00009765625,2.5998655859375ZM48.20009765625,2.5998655859375L48.20009765625,4.2664555859375Q48.20009765625,5.3441855859375,47.41669765625,6.1058455859375Q46.63439765625,6.8663455859375,45.52869765625,6.8663455859375L44.67169765625,6.8663455859375L44.67169765625,6.7663455859375L44.77169765625,6.7663455859375L44.77169765625,34.2648755859375Q44.77239765625,34.6282755859375,44.52089765625,34.8963755859375Q44.27039765625,35.1634755859375,43.90079765625,35.1960755859375Q43.53139765625,35.2286755859375,43.23589765625,35.0100755859375Q42.93929765625,34.7905755859375,42.87279765625,34.4333755859375L42.87189765625,34.4287755859375L42.85739765625,34.2696755859375L42.85739765625,26.7654755859375L42.95739765625,26.7654755859375L42.95739765625,26.8654755859375L24.09999765625,26.8654755859375Q23.34939765625,26.8654755859375,22.81809765625,26.3490755859375Q22.28569765625,25.8314755859375,22.28569765625,25.0988755859375L22.28569765625,16.7659755859375Q22.28569765625,16.2905755859375,22.52919765625,15.8814755859375L22.61509765625,15.9325755859375L22.52919765625,15.9837755859375Q22.28569765625,15.5746755859375,22.28569765625,15.0992755859375L22.28569765625,6.7663455859375L22.38569765625,6.7663455859375L22.38569765625,6.8663455859375L5.24309765625,6.8663455859375L5.24309765625,6.7663455859375L5.34309765625,6.7663455859375L5.34309765625,34.2648755859375Q5.34377765625,34.6282755859375,5.09230765625,34.8964755859375Q4.84184765625,35.1634755859375,4.47218765625,35.1960755859375Q4.10276765625,35.2286755859375,3.80732765625,35.0100755859375Q3.51073765625,34.7905755859375,3.44421765625,34.4333755859375L3.44335765625,34.4287755859375L3.42880765625,34.2696755859375L3.42880765625,6.7663455859375L3.52880765625,6.7663455859375L3.52880765625,6.8663455859375L2.67152765625,6.8663455859375Q1.56580765625,6.8663455859375,0.78354665625,6.1058455859375Q0.00009765624999999445,5.3441955859375,0.00009765624999999445,4.2664555859375L0.00009765624999999445,2.5998655859375Q0.00009765624999999445,1.5221255859375,0.78354565625,0.7604745859375Q1.56580765625,-0.00002441406250000555,2.67152765625,-0.00002441406250000555L45.52869765625,-0.00002441406250000555Q46.63439765625,-0.00002441406250000555,47.41669765625,0.7604745859375Q48.20009765625,1.5221355859375,48.20009765625,2.5998655859375L48.20009765625,2.5998655859375ZM42.95719765625,6.8663255859375L24.09999765625,6.8663255859375L24.09999765625,6.7663255859375L24.19999765625,6.7663255859375L24.19999765625,15.0992755859375L24.09999765625,15.0992755859375L24.09999765625,14.9992755859375L42.95719765625,14.9992755859375L42.95719765625,15.0992755859375L42.85719765625,15.0992755859375L42.85719765625,6.7663255859375L42.95719765625,6.7663255859375L42.95719765625,6.8663255859375ZM43.05719765625,6.6663255859375L43.05719765625,15.1992755859375L23.99999765625,15.1992755859375L23.99999765625,6.6663255859375L42.95719765625,6.6663255859375L43.05719765625,6.6663255859375ZM2.67152765625,1.8332255859375L45.53349765625,1.8332255859375L45.68039765625,1.8475055859375L45.68529765625,1.8484755859375Q45.95929765625,1.9028355859375,46.13649765625,2.1138555859375Q46.31439765625,2.3258255859375,46.31439765625,2.5998855859375L46.31439765625,4.2715855859375L46.29959765625,4.4152155859375L46.29849765625,4.4203255859375Q46.24219765625,4.6884855859375,46.02459765625,4.8612055859375Q45.80789765625,5.0331455859375,45.52869765625,5.0330955859375L2.66667765625,5.0330955859375L2.51977765625,5.0188055859375L2.51491765625,5.0178455859375Q2.24093765625,4.9634755859375,2.06374765625,4.7524555859375Q1.88575765625,4.5404855859375,1.88580765625,4.2664355859375L1.88580765625,2.5947355859375L1.90058765625,2.4511055859375L1.90166765625,2.4459855859375Q1.95796765625,2.1778255859375,2.17559765625,2.0051155859375003Q2.39225765625,1.8331755859375,2.67154765625,1.8332255859375L2.67152765625,1.8332255859375ZM2.67150765625,2.0332255859375Q2.46195765625,2.0331855859375,2.29992765625,2.1617755859375Q2.13885765625,2.2895955859375,2.09739765625,2.4870855859375L1.99952765625,2.4665355859375L2.09900765625,2.4767655859375L2.0852876562500002,2.6100955859375L1.98580765625,2.5998655859375L2.08580765625,2.5998655859375L2.08580765625,4.2664755859375Q2.08576765625,4.4676655859375,2.21690765625,4.6238455859375Q2.34886765625,4.7809955859375,2.55384765625,4.8216755859375L2.53438765625,4.9197555859375L2.54405765625,4.8202255859375L2.68119765625,4.8335555859375L2.67152765625,4.9330955859375L2.67152765625,4.8330955859375L45.52869765625,4.8330955859375Q45.73829765625,4.8331355859375,45.90029765625,4.7045355859375Q46.06129765625,4.5767155859375,46.10279765625,4.3792355859375L46.20069765625,4.3997855859375L46.10119765625,4.3895455859375L46.11489765625,4.2562155859375L46.21439765625,4.2664555859375L46.11439765625,4.2664555859375L46.11439765625,2.5998455859375Q46.11439765625,2.3986455859375,45.98329765625,2.2424655859375Q45.85129765625,2.0853255859375,45.64629765625,2.0446455859375L45.66579765625,1.9465555859375L45.65609765625,2.0460855859375L45.51899765625,2.0327555859375L45.52869765625,1.9332255859375L45.52869765625,2.0332255859375L2.67152765625,2.0332255859375L2.67150765625,2.0332255859375ZM36.85719765625,11.7660755859375L36.85719765625,10.0995255859375L36.95719765625,10.0995255859375L36.95719765625,10.1995755859375L30.10009765625,10.1995755859375L30.10009765625,10.0995255859375L30.20009765625,10.0995255859375L30.20009765625,11.7660755859375L30.10009765625,11.7660755859375L30.10009765625,11.6660755859375L36.95719765625,11.6660755859375L36.95719765625,11.7660755859375L36.85719765625,11.7660755859375ZM37.05719765625,11.8660755859375L30.00009765625,11.8660755859375L30.00009765625,9.9995255859375L37.05719765625,9.9995255859375L37.05719765625,11.7660755859375L37.05719765625,11.8660755859375ZM42.85719765625,25.0988755859375L42.85719765625,16.7659755859375L42.95719765625,16.7659755859375L42.95719765625,16.8659755859375L24.09999765625,16.8659755859375L24.09999765625,16.7659755859375L24.19999765625,16.7659755859375L24.19999765625,25.0988755859375L24.09999765625,25.0988755859375L24.09999765625,24.9988755859375L42.95719765625,24.9988755859375L42.95719765625,25.0988755859375L42.85719765625,25.0988755859375ZM43.05719765625,25.1988755859375L23.99999765625,25.1988755859375L23.99999765625,16.6659755859375L43.05719765625,16.6659755859375L43.05719765625,25.0988755859375L43.05719765625,25.1988755859375ZM36.85719765625,21.7656755859375L36.85719765625,20.0990755859375L36.95719765625,20.0990755859375L36.95719765625,20.1990755859375L30.10009765625,20.1990755859375L30.10009765625,20.0990755859375L30.20009765625,20.0990755859375L30.20009765625,21.7656755859375L30.10009765625,21.7656755859375L30.10009765625,21.6656755859375L36.95719765625,21.6656755859375L36.95719765625,21.7656755859375L36.85719765625,21.7656755859375ZM37.05719765625,21.8656755859375L30.00009765625,21.8656755859375L30.00009765625,19.9990755859375L37.05719765625,19.9990755859375L37.05719765625,21.7656755859375L37.05719765625,21.8656755859375Z" fill="#6D6D6D" fill-opacity="1"/></g></svg>